<?xml version="1.0" encoding="UTF-8" standalone="no"?>
<!DOCTYPE svg PUBLIC "-//W3C//DTD SVG 1.1//EN"
 "http://www.w3.org/Graphics/SVG/1.1/DTD/svg11.dtd">
<!-- Generated by graphviz version 2.40.1 (20161225.0304)
 -->
<!-- Title: G Pages: 1 -->
<svg width="1437pt" height="1475pt"
 viewBox="0.00 0.00 1437.11 1475.00" xmlns="http://www.w3.org/2000/svg" xmlns:xlink="http://www.w3.org/1999/xlink">
<g id="graph0" class="graph" transform="scale(1 1) rotate(0) translate(4 1471)">
<title>G</title>
<polygon fill="#ffffff" stroke="transparent" points="-4,4 -4,-1471 1433.1131,-1471 1433.1131,4 -4,4"/>
<!-- 0 -->
<g id="node1" class="node">
<title>0</title>
<ellipse fill="none" stroke="#000000" cx="384.0901" cy="-1449" rx="123.8137" ry="18"/>
<text text-anchor="middle" x="384.0901" y="-1444.8" font-family="Times,serif" font-size="14.00" fill="#000000">Token(VARNAME, &#39;states&#39;)</text>
</g>
<!-- 1 -->
<g id="node2" class="node">
<title>1</title>
<ellipse fill="none" stroke="#000000" cx="384.0901" cy="-1395" rx="107.6757" ry="18"/>
<text text-anchor="middle" x="384.0901" y="-1390.8" font-family="Times,serif" font-size="14.00" fill="#000000">Token(__ANON_0, &#39; 5&#39;)</text>
</g>
<!-- 2 -->
<g id="node3" class="node">
<title>2</title>
<ellipse fill="#9ba2c2" stroke="#000000" cx="143.1252" cy="-1395" rx="44.6395" ry="18"/>
<text text-anchor="middle" x="143.1252" y="-1390.8" font-family="Times,serif" font-size="14.00" fill="#000000">directive</text>
</g>
<!-- 2&#45;&gt;0 -->
<g id="edge1" class="edge">
<title>2&#45;&gt;0</title>
<path fill="none" stroke="#000000" d="M176.5372,-1407.0111C191.6877,-1412.1432 209.9188,-1417.886 226.6389,-1422 245.7609,-1426.7051 266.3881,-1430.8772 286.2143,-1434.4501"/>
<polygon fill="#000000" stroke="#000000" points="285.7275,-1437.9182 296.1836,-1436.2094 286.944,-1431.0247 285.7275,-1437.9182"/>
</g>
<!-- 2&#45;&gt;1 -->
<g id="edge2" class="edge">
<title>2&#45;&gt;1</title>
<path fill="none" stroke="#000000" d="M188.1662,-1395C210.3677,-1395 238.2881,-1395 266.0366,-1395"/>
<polygon fill="#000000" stroke="#000000" points="266.241,-1398.5001 276.241,-1395 266.241,-1391.5001 266.241,-1398.5001"/>
</g>
<!-- 3 -->
<g id="node4" class="node">
<title>3</title>
<ellipse fill="none" stroke="#000000" cx="384.0901" cy="-1341" rx="155.6927" ry="18"/>
<text text-anchor="middle" x="384.0901" y="-1336.8" font-family="Times,serif" font-size="14.00" fill="#000000">Token(VARNAME, &#39;neighborhood&#39;)</text>
</g>
<!-- 4 -->
<g id="node5" class="node">
<title>4</title>
<ellipse fill="none" stroke="#000000" cx="384.0901" cy="-1287" rx="157.4025" ry="18"/>
<text text-anchor="middle" x="384.0901" y="-1282.8" font-family="Times,serif" font-size="14.00" fill="#000000">Token(__ANON_0, &#39; von Neumann&#39;)</text>
</g>
<!-- 5 -->
<g id="node6" class="node">
<title>5</title>
<ellipse fill="#9ba2c2" stroke="#000000" cx="143.1252" cy="-1287" rx="44.6395" ry="18"/>
<text text-anchor="middle" x="143.1252" y="-1282.8" font-family="Times,serif" font-size="14.00" fill="#000000">directive</text>
</g>
<!-- 5&#45;&gt;3 -->
<g id="edge3" class="edge">
<title>5&#45;&gt;3</title>
<path fill="none" stroke="#000000" d="M176.5372,-1299.0111C191.6877,-1304.1432 209.9188,-1309.886 226.6389,-1314 243.0731,-1318.0437 260.619,-1321.6938 277.8128,-1324.9081"/>
<polygon fill="#000000" stroke="#000000" points="277.418,-1328.3939 287.8845,-1326.75 278.6773,-1321.5081 277.418,-1328.3939"/>
</g>
<!-- 5&#45;&gt;4 -->
<g id="edge4" class="edge">
<title>5&#45;&gt;4</title>
<path fill="none" stroke="#000000" d="M188.1662,-1287C196.7479,-1287 206.1842,-1287 216.1347,-1287"/>
<polygon fill="#000000" stroke="#000000" points="216.2441,-1290.5001 226.244,-1287 216.244,-1283.5001 216.2441,-1290.5001"/>
</g>
<!-- 6 -->
<g id="node7" class="node">
<title>6</title>
<ellipse fill="none" stroke="#000000" cx="384.0901" cy="-1233" rx="146.949" ry="18"/>
<text text-anchor="middle" x="384.0901" y="-1228.8" font-family="Times,serif" font-size="14.00" fill="#000000">Token(VARNAME, &#39;symmetries&#39;)</text>
</g>
<!-- 7 -->
<g id="node8" class="node">
<title>7</title>
<ellipse fill="none" stroke="#000000" cx="384.0901" cy="-1179" rx="121.5632" ry="18"/>
<text text-anchor="middle" x="384.0901" y="-1174.8" font-family="Times,serif" font-size="14.00" fill="#000000">Token(__ANON_0, &#39; none&#39;)</text>
</g>
<!-- 8 -->
<g id="node9" class="node">
<title>8</title>
<ellipse fill="#9ba2c2" stroke="#000000" cx="143.1252" cy="-1179" rx="44.6395" ry="18"/>
<text text-anchor="middle" x="143.1252" y="-1174.8" font-family="Times,serif" font-size="14.00" fill="#000000">directive</text>
</g>
<!-- 8&#45;&gt;6 -->
<g id="edge5" class="edge">
<title>8&#45;&gt;6</title>
<path fill="none" stroke="#000000" d="M176.5372,-1191.0111C191.6877,-1196.1432 209.9188,-1201.886 226.6389,-1206 243.7948,-1210.2213 262.1621,-1214.0136 280.0757,-1217.329"/>
<polygon fill="#000000" stroke="#000000" points="279.5067,-1220.7829 289.9704,-1219.1216 280.7545,-1213.895 279.5067,-1220.7829"/>
</g>
<!-- 8&#45;&gt;7 -->
<g id="edge6" class="edge">
<title>8&#45;&gt;7</title>
<path fill="none" stroke="#000000" d="M188.1662,-1179C206.6177,-1179 229.0193,-1179 251.9894,-1179"/>
<polygon fill="#000000" stroke="#000000" points="252.2134,-1182.5001 262.2133,-1179 252.2133,-1175.5001 252.2134,-1182.5001"/>
</g>
<!-- 9 -->
<g id="node10" class="node">
<title>9</title>
<ellipse fill="none" stroke="#000000" cx="384.0901" cy="-1125" rx="123.8215" ry="18"/>
<text text-anchor="middle" x="384.0901" y="-1120.8" font-family="Times,serif" font-size="14.00" fill="#000000">Token(VARNAME, &#39;move&#39;)</text>
</g>
<!-- 10 -->
<g id="node11" class="node">
<title>10</title>
<ellipse fill="none" stroke="#000000" cx="703.3632" cy="-1125" rx="74.12" ry="18"/>
<text text-anchor="middle" x="703.3632" y="-1120.8" font-family="Times,serif" font-size="14.00" fill="#000000">Token(INT, &#39;1&#39;)</text>
</g>
<!-- 11 -->
<g id="node12" class="node">
<title>11</title>
<ellipse fill="none" stroke="#000000" cx="703.3632" cy="-1071" rx="74.12" ry="18"/>
<text text-anchor="middle" x="703.3632" y="-1066.8" font-family="Times,serif" font-size="14.00" fill="#000000">Token(INT, &#39;2&#39;)</text>
</g>
<!-- 12 -->
<g id="node13" class="node">
<title>12</title>
<ellipse fill="#fdc1ad" stroke="#000000" cx="384.0901" cy="-1071" rx="50.9367" ry="18"/>
<text text-anchor="middle" x="384.0901" y="-1066.8" font-family="Times,serif" font-size="14.00" fill="#000000">var_literal</text>
</g>
<!-- 12&#45;&gt;10 -->
<g id="edge7" class="edge">
<title>12&#45;&gt;10</title>
<path fill="none" stroke="#000000" d="M430.1742,-1078.7944C483.0929,-1087.7448 570.5285,-1102.5331 632.2064,-1112.965"/>
<polygon fill="#000000" stroke="#000000" points="631.8137,-1116.4482 642.2574,-1114.6649 632.9812,-1109.5462 631.8137,-1116.4482"/>
</g>
<!-- 12&#45;&gt;11 -->
<g id="edge8" class="edge">
<title>12&#45;&gt;11</title>
<path fill="none" stroke="#000000" d="M435.0329,-1071C484.3592,-1071 560.0527,-1071 618.4851,-1071"/>
<polygon fill="#000000" stroke="#000000" points="618.8141,-1074.5001 628.814,-1071 618.814,-1067.5001 618.8141,-1074.5001"/>
</g>
<!-- 13 -->
<g id="node14" class="node">
<title>13</title>
<ellipse fill="#b3b98a" stroke="#000000" cx="143.1252" cy="-1071" rx="44.0622" ry="18"/>
<text text-anchor="middle" x="143.1252" y="-1066.8" font-family="Times,serif" font-size="14.00" fill="#000000">var_decl</text>
</g>
<!-- 13&#45;&gt;9 -->
<g id="edge9" class="edge">
<title>13&#45;&gt;9</title>
<path fill="none" stroke="#000000" d="M176.5372,-1083.0111C191.6877,-1088.1432 209.9188,-1093.886 226.6389,-1098 245.7609,-1102.7051 266.3881,-1106.8772 286.2143,-1110.4501"/>
<polygon fill="#000000" stroke="#000000" points="285.7275,-1113.9182 296.1836,-1112.2094 286.944,-1107.0247 285.7275,-1113.9182"/>
</g>
<!-- 13&#45;&gt;12 -->
<g id="edge10" class="edge">
<title>13&#45;&gt;12</title>
<path fill="none" stroke="#000000" d="M187.6027,-1071C225.6682,-1071 280.8418,-1071 323.039,-1071"/>
<polygon fill="#000000" stroke="#000000" points="323.1953,-1074.5001 333.1953,-1071 323.1953,-1067.5001 323.1953,-1074.5001"/>
</g>
<!-- 14 -->
<g id="node15" class="node">
<title>14</title>
<ellipse fill="none" stroke="#000000" cx="384.0901" cy="-1017" rx="118.6607" ry="18"/>
<text text-anchor="middle" x="384.0901" y="-1012.8" font-family="Times,serif" font-size="14.00" fill="#000000">Token(VARNAME, &#39;wait&#39;)</text>
</g>
<!-- 15 -->
<g id="node16" class="node">
<title>15</title>
<ellipse fill="none" stroke="#000000" cx="703.3632" cy="-1017" rx="74.12" ry="18"/>
<text text-anchor="middle" x="703.3632" y="-1012.8" font-family="Times,serif" font-size="14.00" fill="#000000">Token(INT, &#39;3&#39;)</text>
</g>
<!-- 16 -->
<g id="node17" class="node">
<title>16</title>
<ellipse fill="none" stroke="#000000" cx="703.3632" cy="-963" rx="74.12" ry="18"/>
<text text-anchor="middle" x="703.3632" y="-958.8" font-family="Times,serif" font-size="14.00" fill="#000000">Token(INT, &#39;4&#39;)</text>
</g>
<!-- 17 -->
<g id="node18" class="node">
<title>17</title>
<ellipse fill="#fdc1ad" stroke="#000000" cx="384.0901" cy="-963" rx="50.9367" ry="18"/>
<text text-anchor="middle" x="384.0901" y="-958.8" font-family="Times,serif" font-size="14.00" fill="#000000">var_literal</text>
</g>
<!-- 17&#45;&gt;15 -->
<g id="edge11" class="edge">
<title>17&#45;&gt;15</title>
<path fill="none" stroke="#000000" d="M430.1742,-970.7944C483.0929,-979.7448 570.5285,-994.5331 632.2064,-1004.965"/>
<polygon fill="#000000" stroke="#000000" points="631.8137,-1008.4482 642.2574,-1006.6649 632.9812,-1001.5462 631.8137,-1008.4482"/>
</g>
<!-- 17&#45;&gt;16 -->
<g id="edge12" class="edge">
<title>17&#45;&gt;16</title>
<path fill="none" stroke="#000000" d="M435.0329,-963C484.3592,-963 560.0527,-963 618.4851,-963"/>
<polygon fill="#000000" stroke="#000000" points="618.8141,-966.5001 628.814,-963 618.814,-959.5001 618.8141,-966.5001"/>
</g>
<!-- 18 -->
<g id="node19" class="node">
<title>18</title>
<ellipse fill="#b3b98a" stroke="#000000" cx="143.1252" cy="-1017" rx="44.0622" ry="18"/>
<text text-anchor="middle" x="143.1252" y="-1012.8" font-family="Times,serif" font-size="14.00" fill="#000000">var_decl</text>
</g>
<!-- 18&#45;&gt;14 -->
<g id="edge13" class="edge">
<title>18&#45;&gt;14</title>
<path fill="none" stroke="#000000" d="M187.6027,-1017C206.9649,-1017 230.7535,-1017 255.0093,-1017"/>
<polygon fill="#000000" stroke="#000000" points="255.0513,-1020.5001 265.0512,-1017 255.0512,-1013.5001 255.0513,-1020.5001"/>
</g>
<!-- 18&#45;&gt;17 -->
<g id="edge14" class="edge">
<title>18&#45;&gt;17</title>
<path fill="none" stroke="#000000" d="M176.5372,-1004.9889C191.6877,-999.8568 209.9188,-994.114 226.6389,-990 259.2817,-981.9681 296.3104,-975.4892 326.254,-970.8933"/>
<polygon fill="#000000" stroke="#000000" points="327.1634,-974.2959 336.5312,-969.3467 326.1216,-967.3739 327.1634,-974.2959"/>
</g>
<!-- 19 -->
<g id="node20" class="node">
<title>19</title>
<ellipse fill="none" stroke="#000000" cx="703.3632" cy="-909" rx="118.6607" ry="18"/>
<text text-anchor="middle" x="703.3632" y="-904.8" font-family="Times,serif" font-size="14.00" fill="#000000">Token(VARNAME, &#39;wait&#39;)</text>
</g>
<!-- 20 -->
<g id="node21" class="node">
<title>20</title>
<ellipse fill="#f1c8a3" stroke="#000000" cx="384.0901" cy="-909" rx="33.6402" ry="18"/>
<text text-anchor="middle" x="384.0901" y="-904.8" font-family="Times,serif" font-size="14.00" fill="#000000">initial</text>
</g>
<!-- 20&#45;&gt;19 -->
<g id="edge15" class="edge">
<title>20&#45;&gt;19</title>
<path fill="none" stroke="#000000" d="M417.9556,-909C455.199,-909 517.315,-909 574.1051,-909"/>
<polygon fill="#000000" stroke="#000000" points="574.2702,-912.5001 584.2702,-909 574.2702,-905.5001 574.2702,-912.5001"/>
</g>
<!-- 21 -->
<g id="node22" class="node">
<title>21</title>
<ellipse fill="none" stroke="#000000" cx="1300.0755" cy="-963" rx="126.7876" ry="18"/>
<text text-anchor="middle" x="1300.0755" y="-958.8" font-family="Times,serif" font-size="14.00" fill="#000000">Token(COMPASS_DIR, &#39;N&#39;)</text>
</g>
<!-- 22 -->
<g id="node23" class="node">
<title>22</title>
<ellipse fill="none" stroke="#000000" cx="1300.0755" cy="-909" rx="129.0752" ry="18"/>
<text text-anchor="middle" x="1300.0755" y="-904.8" font-family="Times,serif" font-size="14.00" fill="#000000">Token(COMPASS_DIR, &#39;W&#39;)</text>
</g>
<!-- 23 -->
<g id="node24" class="node">
<title>23</title>
<ellipse fill="#99cec7" stroke="#000000" cx="1000.1115" cy="-936" rx="36.5383" ry="18"/>
<text text-anchor="middle" x="1000.1115" y="-931.8" font-family="Times,serif" font-size="14.00" fill="#000000">crange</text>
</g>
<!-- 23&#45;&gt;21 -->
<g id="edge16" class="edge">
<title>23&#45;&gt;21</title>
<path fill="none" stroke="#000000" d="M1036.2941,-939.2568C1072.5984,-942.5246 1130.4831,-947.7349 1182.7905,-952.4431"/>
<polygon fill="#000000" stroke="#000000" points="1182.5537,-955.9358 1192.8272,-953.3465 1183.1813,-948.964 1182.5537,-955.9358"/>
</g>
<!-- 23&#45;&gt;22 -->
<g id="edge17" class="edge">
<title>23&#45;&gt;22</title>
<path fill="none" stroke="#000000" d="M1036.2941,-932.7432C1072.3056,-929.5017 1129.5509,-924.3491 1181.5239,-919.6709"/>
<polygon fill="#000000" stroke="#000000" points="1181.854,-923.1554 1191.5,-918.773 1181.2264,-916.1836 1181.854,-923.1554"/>
</g>
<!-- 24 -->
<g id="node25" class="node">
<title>24</title>
<ellipse fill="none" stroke="#000000" cx="1000.1115" cy="-882" rx="116.2972" ry="18"/>
<text text-anchor="middle" x="1000.1115" y="-877.8" font-family="Times,serif" font-size="14.00" fill="#000000">Token(VARNAME, &#39;any&#39;)</text>
</g>
<!-- 25 -->
<g id="node26" class="node">
<title>25</title>
<ellipse fill="#d7fdc3" stroke="#000000" cx="703.3632" cy="-855" rx="63.6832" ry="18"/>
<text text-anchor="middle" x="703.3632" y="-850.8" font-family="Times,serif" font-size="14.00" fill="#000000">medial_range</text>
</g>
<!-- 25&#45;&gt;23 -->
<g id="edge18" class="edge">
<title>25&#45;&gt;23</title>
<path fill="none" stroke="#000000" d="M762.0305,-862.1826C783.7856,-866.2267 808.2438,-872.4607 829.185,-882 847.3856,-890.2909 846.9273,-900.8356 865.185,-909 893.0047,-921.4402 926.6024,-928.1867 953.3118,-931.8249"/>
<polygon fill="#000000" stroke="#000000" points="953.1954,-935.3378 963.5545,-933.1155 954.0706,-928.3927 953.1954,-935.3378"/>
</g>
<!-- 25&#45;&gt;24 -->
<g id="edge19" class="edge">
<title>25&#45;&gt;24</title>
<path fill="none" stroke="#000000" d="M764.1307,-860.529C800.2363,-863.8141 847.1248,-868.0803 889.5828,-871.9434"/>
<polygon fill="#000000" stroke="#000000" points="889.425,-875.4434 899.701,-872.864 890.0593,-868.4722 889.425,-875.4434"/>
</g>
<!-- 26 -->
<g id="node27" class="node">
<title>26</title>
<ellipse fill="#e39ff6" stroke="#000000" cx="384.0901" cy="-855" rx="37.1424" ry="18"/>
<text text-anchor="middle" x="384.0901" y="-850.8" font-family="Times,serif" font-size="14.00" fill="#000000">napkin</text>
</g>
<!-- 26&#45;&gt;25 -->
<g id="edge20" class="edge">
<title>26&#45;&gt;25</title>
<path fill="none" stroke="#000000" d="M421.6536,-855C472.5056,-855 564.3508,-855 629.3282,-855"/>
<polygon fill="#000000" stroke="#000000" points="629.5157,-858.5001 639.5156,-855 629.5156,-851.5001 629.5157,-858.5001"/>
</g>
<!-- 27 -->
<g id="node28" class="node">
<title>27</title>
<ellipse fill="none" stroke="#000000" cx="1000.1115" cy="-828" rx="133.7111" ry="18"/>
<text text-anchor="middle" x="1000.1115" y="-823.8" font-family="Times,serif" font-size="14.00" fill="#000000">Token(PREVIOUS_BIND, &#39;0&#39;)</text>
</g>
<!-- 28 -->
<g id="node29" class="node">
<title>28</title>
<ellipse fill="none" stroke="#000000" cx="1000.1115" cy="-774" rx="123.8215" ry="18"/>
<text text-anchor="middle" x="1000.1115" y="-769.8" font-family="Times,serif" font-size="14.00" fill="#000000">Token(VARNAME, &#39;move&#39;)</text>
</g>
<!-- 29 -->
<g id="node30" class="node">
<title>29</title>
<ellipse fill="#e7b2b4" stroke="#000000" cx="703.3632" cy="-801" rx="44.6665" ry="18"/>
<text text-anchor="middle" x="703.3632" y="-796.8" font-family="Times,serif" font-size="14.00" fill="#000000">mapping</text>
</g>
<!-- 29&#45;&gt;27 -->
<g id="edge21" class="edge">
<title>29&#45;&gt;27</title>
<path fill="none" stroke="#000000" d="M747.1494,-804.9839C781.9209,-808.1477 832.2844,-812.7301 878.9341,-816.9745"/>
<polygon fill="#000000" stroke="#000000" points="878.8593,-820.4821 889.1353,-817.9027 879.4936,-813.5109 878.8593,-820.4821"/>
</g>
<!-- 29&#45;&gt;28 -->
<g id="edge22" class="edge">
<title>29&#45;&gt;28</title>
<path fill="none" stroke="#000000" d="M747.1494,-797.0161C783.4237,-793.7156 836.6669,-788.8712 884.9602,-784.4772"/>
<polygon fill="#000000" stroke="#000000" points="885.5408,-787.9389 895.1825,-783.5471 884.9064,-780.9677 885.5408,-787.9389"/>
</g>
<!-- 30 -->
<g id="node31" class="node">
<title>30</title>
<ellipse fill="#c2c1c2" stroke="#000000" cx="384.0901" cy="-801" rx="28.9696" ry="18"/>
<text text-anchor="middle" x="384.0901" y="-796.8" font-family="Times,serif" font-size="14.00" fill="#000000">final</text>
</g>
<!-- 30&#45;&gt;29 -->
<g id="edge23" class="edge">
<title>30&#45;&gt;29</title>
<path fill="none" stroke="#000000" d="M412.9866,-801C466.0593,-801 579.871,-801 648.1859,-801"/>
<polygon fill="#000000" stroke="#000000" points="648.3326,-804.5001 658.3326,-801 648.3325,-797.5001 648.3326,-804.5001"/>
</g>
<!-- 31 -->
<g id="node32" class="node">
<title>31</title>
<ellipse fill="#c3adfe" stroke="#000000" cx="143.1252" cy="-882" rx="47.5274" ry="18"/>
<text text-anchor="middle" x="143.1252" y="-877.8" font-family="Times,serif" font-size="14.00" fill="#000000">transition</text>
</g>
<!-- 31&#45;&gt;20 -->
<g id="edge24" class="edge">
<title>31&#45;&gt;20</title>
<path fill="none" stroke="#000000" d="M188.7321,-887.1102C232.4711,-892.0112 298.0223,-899.3561 340.9257,-904.1634"/>
<polygon fill="#000000" stroke="#000000" points="340.7238,-907.6626 351.0513,-905.298 341.5033,-900.7062 340.7238,-907.6626"/>
</g>
<!-- 31&#45;&gt;26 -->
<g id="edge25" class="edge">
<title>31&#45;&gt;26</title>
<path fill="none" stroke="#000000" d="M188.7321,-876.8898C231.3366,-872.1159 294.6366,-865.0232 337.5424,-860.2156"/>
<polygon fill="#000000" stroke="#000000" points="338.1685,-863.6675 347.7166,-859.0756 337.389,-856.711 338.1685,-863.6675"/>
</g>
<!-- 31&#45;&gt;30 -->
<g id="edge26" class="edge">
<title>31&#45;&gt;30</title>
<path fill="none" stroke="#000000" d="M163.4572,-865.4785C179.6201,-853.2135 203.3149,-837.0977 226.6389,-828 265.3418,-812.9037 312.6581,-806.2298 345.258,-803.2906"/>
<polygon fill="#000000" stroke="#000000" points="345.6178,-806.7729 355.2957,-802.4615 345.0416,-799.7966 345.6178,-806.7729"/>
</g>
<!-- 32 -->
<g id="node33" class="node">
<title>32</title>
<ellipse fill="none" stroke="#000000" cx="703.3632" cy="-720" rx="74.12" ry="18"/>
<text text-anchor="middle" x="703.3632" y="-715.8" font-family="Times,serif" font-size="14.00" fill="#000000">Token(INT, &#39;1&#39;)</text>
</g>
<!-- 33 -->
<g id="node34" class="node">
<title>33</title>
<ellipse fill="#f1c8a3" stroke="#000000" cx="384.0901" cy="-720" rx="33.6402" ry="18"/>
<text text-anchor="middle" x="384.0901" y="-715.8" font-family="Times,serif" font-size="14.00" fill="#000000">initial</text>
</g>
<!-- 33&#45;&gt;32 -->
<g id="edge27" class="edge">
<title>33&#45;&gt;32</title>
<path fill="none" stroke="#000000" d="M417.9556,-720C465.3322,-720 552.9573,-720 618.6684,-720"/>
<polygon fill="#000000" stroke="#000000" points="619.0169,-723.5001 629.0169,-720 619.0169,-716.5001 619.0169,-723.5001"/>
</g>
<!-- 34 -->
<g id="node35" class="node">
<title>34</title>
<ellipse fill="none" stroke="#000000" cx="1300.0755" cy="-747" rx="126.7876" ry="18"/>
<text text-anchor="middle" x="1300.0755" y="-742.8" font-family="Times,serif" font-size="14.00" fill="#000000">Token(COMPASS_DIR, &#39;N&#39;)</text>
</g>
<!-- 35 -->
<g id="node36" class="node">
<title>35</title>
<ellipse fill="none" stroke="#000000" cx="1300.0755" cy="-693" rx="129.0752" ry="18"/>
<text text-anchor="middle" x="1300.0755" y="-688.8" font-family="Times,serif" font-size="14.00" fill="#000000">Token(COMPASS_DIR, &#39;W&#39;)</text>
</g>
<!-- 36 -->
<g id="node37" class="node">
<title>36</title>
<ellipse fill="#99cec7" stroke="#000000" cx="1000.1115" cy="-720" rx="36.5383" ry="18"/>
<text text-anchor="middle" x="1000.1115" y="-715.8" font-family="Times,serif" font-size="14.00" fill="#000000">crange</text>
</g>
<!-- 36&#45;&gt;34 -->
<g id="edge28" class="edge">
<title>36&#45;&gt;34</title>
<path fill="none" stroke="#000000" d="M1036.2941,-723.2568C1072.5984,-726.5246 1130.4831,-731.7349 1182.7905,-736.4431"/>
<polygon fill="#000000" stroke="#000000" points="1182.5537,-739.9358 1192.8272,-737.3465 1183.1813,-732.964 1182.5537,-739.9358"/>
</g>
<!-- 36&#45;&gt;35 -->
<g id="edge29" class="edge">
<title>36&#45;&gt;35</title>
<path fill="none" stroke="#000000" d="M1036.2941,-716.7432C1072.3056,-713.5017 1129.5509,-708.3491 1181.5239,-703.6709"/>
<polygon fill="#000000" stroke="#000000" points="1181.854,-707.1554 1191.5,-702.773 1181.2264,-700.1836 1181.854,-707.1554"/>
</g>
<!-- 37 -->
<g id="node38" class="node">
<title>37</title>
<ellipse fill="none" stroke="#000000" cx="1000.1115" cy="-666" rx="116.2972" ry="18"/>
<text text-anchor="middle" x="1000.1115" y="-661.8" font-family="Times,serif" font-size="14.00" fill="#000000">Token(VARNAME, &#39;any&#39;)</text>
</g>
<!-- 38 -->
<g id="node39" class="node">
<title>38</title>
<ellipse fill="#d7fdc3" stroke="#000000" cx="703.3632" cy="-666" rx="63.6832" ry="18"/>
<text text-anchor="middle" x="703.3632" y="-661.8" font-family="Times,serif" font-size="14.00" fill="#000000">medial_range</text>
</g>
<!-- 38&#45;&gt;36 -->
<g id="edge30" class="edge">
<title>38&#45;&gt;36</title>
<path fill="none" stroke="#000000" d="M757.1021,-675.779C813.7848,-686.0937 902.0926,-702.1633 955.1965,-711.8267"/>
<polygon fill="#000000" stroke="#000000" points="954.863,-715.3234 965.3281,-713.6704 956.1163,-708.4365 954.863,-715.3234"/>
</g>
<!-- 38&#45;&gt;37 -->
<g id="edge31" class="edge">
<title>38&#45;&gt;37</title>
<path fill="none" stroke="#000000" d="M767.0231,-666C798.1564,-666 836.7732,-666 873.5603,-666"/>
<polygon fill="#000000" stroke="#000000" points="873.8799,-669.5001 883.8799,-666 873.8798,-662.5001 873.8799,-669.5001"/>
</g>
<!-- 39 -->
<g id="node40" class="node">
<title>39</title>
<ellipse fill="#e39ff6" stroke="#000000" cx="384.0901" cy="-666" rx="37.1424" ry="18"/>
<text text-anchor="middle" x="384.0901" y="-661.8" font-family="Times,serif" font-size="14.00" fill="#000000">napkin</text>
</g>
<!-- 39&#45;&gt;38 -->
<g id="edge32" class="edge">
<title>39&#45;&gt;38</title>
<path fill="none" stroke="#000000" d="M421.6536,-666C472.5056,-666 564.3508,-666 629.3282,-666"/>
<polygon fill="#000000" stroke="#000000" points="629.5157,-669.5001 639.5156,-666 629.5156,-662.5001 629.5157,-669.5001"/>
</g>
<!-- 40 -->
<g id="node41" class="node">
<title>40</title>
<ellipse fill="none" stroke="#000000" cx="1000.1115" cy="-612" rx="134.2906" ry="18"/>
<text text-anchor="middle" x="1000.1115" y="-607.8" font-family="Times,serif" font-size="14.00" fill="#000000">Token(PREVIOUS_BIND, &#39;S&#39;)</text>
</g>
<!-- 41 -->
<g id="node42" class="node">
<title>41</title>
<ellipse fill="none" stroke="#000000" cx="1300.0755" cy="-612" rx="74.12" ry="18"/>
<text text-anchor="middle" x="1300.0755" y="-607.8" font-family="Times,serif" font-size="14.00" fill="#000000">Token(INT, &#39;0&#39;)</text>
</g>
<!-- 42 -->
<g id="node43" class="node">
<title>42</title>
<ellipse fill="none" stroke="#000000" cx="1300.0755" cy="-558" rx="74.12" ry="18"/>
<text text-anchor="middle" x="1300.0755" y="-553.8" font-family="Times,serif" font-size="14.00" fill="#000000">Token(INT, &#39;3&#39;)</text>
</g>
<!-- 43 -->
<g id="node44" class="node">
<title>43</title>
<ellipse fill="#89c2d4" stroke="#000000" cx="1300.0755" cy="-504" rx="55.0343" ry="18"/>
<text text-anchor="middle" x="1300.0755" y="-499.8" font-family="Times,serif" font-size="14.00" fill="#000000">extend_last</text>
</g>
<!-- 44 -->
<g id="node45" class="node">
<title>44</title>
<ellipse fill="#92a2f9" stroke="#000000" cx="1000.1115" cy="-558" rx="72.3477" ry="18"/>
<text text-anchor="middle" x="1000.1115" y="-553.8" font-family="Times,serif" font-size="14.00" fill="#000000">map_var_literal</text>
</g>
<!-- 44&#45;&gt;41 -->
<g id="edge33" class="edge">
<title>44&#45;&gt;41</title>
<path fill="none" stroke="#000000" d="M1058.6596,-568.5399C1107.811,-577.3882 1178.1478,-590.0504 1230.231,-599.4265"/>
<polygon fill="#000000" stroke="#000000" points="1229.9307,-602.9286 1240.3926,-601.2558 1231.1709,-596.0393 1229.9307,-602.9286"/>
</g>
<!-- 44&#45;&gt;42 -->
<g id="edge34" class="edge">
<title>44&#45;&gt;42</title>
<path fill="none" stroke="#000000" d="M1072.342,-558C1115.4546,-558 1170.4143,-558 1215.5409,-558"/>
<polygon fill="#000000" stroke="#000000" points="1215.6016,-561.5001 1225.6015,-558 1215.6015,-554.5001 1215.6016,-561.5001"/>
</g>
<!-- 44&#45;&gt;43 -->
<g id="edge35" class="edge">
<title>44&#45;&gt;43</title>
<path fill="none" stroke="#000000" d="M1058.6596,-547.4601C1111.5174,-537.9445 1188.876,-524.0183 1241.685,-514.5116"/>
<polygon fill="#000000" stroke="#000000" points="1242.3547,-517.9473 1251.5764,-512.7309 1241.1144,-511.0581 1242.3547,-517.9473"/>
</g>
<!-- 45 -->
<g id="node46" class="node">
<title>45</title>
<ellipse fill="#e7b2b4" stroke="#000000" cx="703.3632" cy="-612" rx="44.6665" ry="18"/>
<text text-anchor="middle" x="703.3632" y="-607.8" font-family="Times,serif" font-size="14.00" fill="#000000">mapping</text>
</g>
<!-- 45&#45;&gt;40 -->
<g id="edge36" class="edge">
<title>45&#45;&gt;40</title>
<path fill="none" stroke="#000000" d="M748.4329,-612C777.2329,-612 816.3415,-612 855.1399,-612"/>
<polygon fill="#000000" stroke="#000000" points="855.5261,-615.5001 865.5261,-612 855.5261,-608.5001 855.5261,-615.5001"/>
</g>
<!-- 45&#45;&gt;44 -->
<g id="edge37" class="edge">
<title>45&#45;&gt;44</title>
<path fill="none" stroke="#000000" d="M744.3132,-604.5482C792.61,-595.7595 873.6369,-581.0149 931.5575,-570.4749"/>
<polygon fill="#000000" stroke="#000000" points="932.5166,-573.858 941.7284,-568.6241 931.2634,-566.9711 932.5166,-573.858"/>
</g>
<!-- 46 -->
<g id="node47" class="node">
<title>46</title>
<ellipse fill="#c2c1c2" stroke="#000000" cx="384.0901" cy="-612" rx="28.9696" ry="18"/>
<text text-anchor="middle" x="384.0901" y="-607.8" font-family="Times,serif" font-size="14.00" fill="#000000">final</text>
</g>
<!-- 46&#45;&gt;45 -->
<g id="edge38" class="edge">
<title>46&#45;&gt;45</title>
<path fill="none" stroke="#000000" d="M412.9866,-612C466.0593,-612 579.871,-612 648.1859,-612"/>
<polygon fill="#000000" stroke="#000000" points="648.3326,-615.5001 658.3326,-612 648.3325,-608.5001 648.3326,-615.5001"/>
</g>
<!-- 47 -->
<g id="node48" class="node">
<title>47</title>
<ellipse fill="none" stroke="#000000" cx="384.0901" cy="-558" rx="102.646" ry="18"/>
<text text-anchor="middle" x="384.0901" y="-553.8" font-family="Times,serif" font-size="14.00" fill="#000000">Token(ARROW, &#39; &#45;&gt; &#39;)</text>
</g>
<!-- 48 -->
<g id="node49" class="node">
<title>48</title>
<ellipse fill="none" stroke="#000000" cx="703.3632" cy="-504" rx="125.0818" ry="18"/>
<text text-anchor="middle" x="703.3632" y="-499.8" font-family="Times,serif" font-size="14.00" fill="#000000">Token(COMPASS_DIR, &#39;S&#39;)</text>
</g>
<!-- 49 -->
<g id="node50" class="node">
<title>49</title>
<ellipse fill="none" stroke="#000000" cx="1000.1115" cy="-504" rx="74.12" ry="18"/>
<text text-anchor="middle" x="1000.1115" y="-499.8" font-family="Times,serif" font-size="14.00" fill="#000000">Token(INT, &#39;3&#39;)</text>
</g>
<!-- 50 -->
<g id="node51" class="node">
<title>50</title>
<ellipse fill="#aadf93" stroke="#000000" cx="1000.1115" cy="-450" rx="61.9982" ry="18"/>
<text text-anchor="middle" x="1000.1115" y="-445.8" font-family="Times,serif" font-size="14.00" fill="#000000">no_transition</text>
</g>
<!-- 51 -->
<g id="node52" class="node">
<title>51</title>
<ellipse fill="#89c2d4" stroke="#000000" cx="1000.1115" cy="-396" rx="55.0343" ry="18"/>
<text text-anchor="middle" x="1000.1115" y="-391.8" font-family="Times,serif" font-size="14.00" fill="#000000">extend_last</text>
</g>
<!-- 52 -->
<g id="node53" class="node">
<title>52</title>
<ellipse fill="#a0d497" stroke="#000000" cx="703.3632" cy="-450" rx="72.3477" ry="18"/>
<text text-anchor="middle" x="703.3632" y="-445.8" font-family="Times,serif" font-size="14.00" fill="#000000">ptcd_var_literal</text>
</g>
<!-- 52&#45;&gt;49 -->
<g id="edge39" class="edge">
<title>52&#45;&gt;49</title>
<path fill="none" stroke="#000000" d="M761.9911,-460.6687C810.4469,-469.4863 879.3582,-482.0262 930.5902,-491.3491"/>
<polygon fill="#000000" stroke="#000000" points="930.1246,-494.8217 940.5896,-493.1687 931.3778,-487.9348 930.1246,-494.8217"/>
</g>
<!-- 52&#45;&gt;50 -->
<g id="edge40" class="edge">
<title>52&#45;&gt;50</title>
<path fill="none" stroke="#000000" d="M775.5765,-450C821.671,-450 881.22,-450 927.4091,-450"/>
<polygon fill="#000000" stroke="#000000" points="927.6482,-453.5001 937.6482,-450 927.6482,-446.5001 927.6482,-453.5001"/>
</g>
<!-- 52&#45;&gt;51 -->
<g id="edge41" class="edge">
<title>52&#45;&gt;51</title>
<path fill="none" stroke="#000000" d="M761.9911,-439.3313C814.089,-429.8509 889.833,-416.0676 941.8267,-406.6062"/>
<polygon fill="#000000" stroke="#000000" points="942.683,-410.008 951.8948,-404.7741 941.4297,-403.1211 942.683,-410.008"/>
</g>
<!-- 53 -->
<g id="node54" class="node">
<title>53</title>
<ellipse fill="#96b2b2" stroke="#000000" cx="384.0901" cy="-504" rx="67.7779" ry="18"/>
<text text-anchor="middle" x="384.0901" y="-499.8" font-family="Times,serif" font-size="14.00" fill="#000000">ptcd_map_self</text>
</g>
<!-- 53&#45;&gt;48 -->
<g id="edge42" class="edge">
<title>53&#45;&gt;48</title>
<path fill="none" stroke="#000000" d="M452.1906,-504C485.9568,-504 527.9755,-504 567.9243,-504"/>
<polygon fill="#000000" stroke="#000000" points="568.03,-507.5001 578.03,-504 568.0299,-500.5001 568.03,-507.5001"/>
</g>
<!-- 53&#45;&gt;52 -->
<g id="edge43" class="edge">
<title>53&#45;&gt;52</title>
<path fill="none" stroke="#000000" d="M441.5385,-494.2835C495.3115,-485.1887 575.7717,-471.5801 633.2934,-461.8512"/>
<polygon fill="#000000" stroke="#000000" points="634.1194,-465.2613 643.3957,-460.1426 632.952,-458.3593 634.1194,-465.2613"/>
</g>
<!-- 54 -->
<g id="node55" class="node">
<title>54</title>
<ellipse fill="#c3adfe" stroke="#000000" cx="143.1252" cy="-639" rx="47.5274" ry="18"/>
<text text-anchor="middle" x="143.1252" y="-634.8" font-family="Times,serif" font-size="14.00" fill="#000000">transition</text>
</g>
<!-- 54&#45;&gt;33 -->
<g id="edge44" class="edge">
<title>54&#45;&gt;33</title>
<path fill="none" stroke="#000000" d="M163.4572,-655.5215C179.6201,-667.7865 203.3149,-683.9023 226.6389,-693 263.4766,-707.3688 308.1175,-714.1074 340.4449,-717.2579"/>
<polygon fill="#000000" stroke="#000000" points="340.2094,-720.7508 350.4826,-718.1599 340.836,-713.7789 340.2094,-720.7508"/>
</g>
<!-- 54&#45;&gt;39 -->
<g id="edge45" class="edge">
<title>54&#45;&gt;39</title>
<path fill="none" stroke="#000000" d="M188.7321,-644.1102C231.3366,-648.8841 294.6366,-655.9768 337.5424,-660.7844"/>
<polygon fill="#000000" stroke="#000000" points="337.389,-664.289 347.7166,-661.9244 338.1685,-657.3325 337.389,-664.289"/>
</g>
<!-- 54&#45;&gt;46 -->
<g id="edge46" class="edge">
<title>54&#45;&gt;46</title>
<path fill="none" stroke="#000000" d="M188.7321,-633.8898C234.1097,-628.8052 302.9645,-621.0901 345.65,-616.3072"/>
<polygon fill="#000000" stroke="#000000" points="346.0989,-619.7789 355.647,-615.187 345.3194,-612.8224 346.0989,-619.7789"/>
</g>
<!-- 54&#45;&gt;47 -->
<g id="edge47" class="edge">
<title>54&#45;&gt;47</title>
<path fill="none" stroke="#000000" d="M163.4572,-622.4785C179.6201,-610.2135 203.3149,-594.0977 226.6389,-585 244.8745,-577.887 265.0224,-572.6439 284.6421,-568.7802"/>
<polygon fill="#000000" stroke="#000000" points="285.3399,-572.2105 294.5294,-566.9377 284.0574,-565.329 285.3399,-572.2105"/>
</g>
<!-- 54&#45;&gt;53 -->
<g id="edge48" class="edge">
<title>54&#45;&gt;53</title>
<path fill="none" stroke="#000000" d="M151.5888,-621.0844C164.2282,-596.458 190.4786,-552.7344 226.6389,-531 250.2463,-516.8106 279.2331,-509.567 305.8728,-506.0156"/>
<polygon fill="#000000" stroke="#000000" points="306.4298,-509.4743 315.9517,-504.8285 305.6109,-502.5223 306.4298,-509.4743"/>
</g>
<!-- 55 -->
<g id="node56" class="node">
<title>55</title>
<ellipse fill="none" stroke="#000000" cx="703.3632" cy="-342" rx="74.12" ry="18"/>
<text text-anchor="middle" x="703.3632" y="-337.8" font-family="Times,serif" font-size="14.00" fill="#000000">Token(INT, &#39;2&#39;)</text>
</g>
<!-- 56 -->
<g id="node57" class="node">
<title>56</title>
<ellipse fill="#f1c8a3" stroke="#000000" cx="384.0901" cy="-342" rx="33.6402" ry="18"/>
<text text-anchor="middle" x="384.0901" y="-337.8" font-family="Times,serif" font-size="14.00" fill="#000000">initial</text>
</g>
<!-- 56&#45;&gt;55 -->
<g id="edge49" class="edge">
<title>56&#45;&gt;55</title>
<path fill="none" stroke="#000000" d="M417.9556,-342C465.3322,-342 552.9573,-342 618.6684,-342"/>
<polygon fill="#000000" stroke="#000000" points="619.0169,-345.5001 629.0169,-342 619.0169,-338.5001 619.0169,-345.5001"/>
</g>
<!-- 57 -->
<g id="node58" class="node">
<title>57</title>
<ellipse fill="none" stroke="#000000" cx="1300.0755" cy="-369" rx="126.7876" ry="18"/>
<text text-anchor="middle" x="1300.0755" y="-364.8" font-family="Times,serif" font-size="14.00" fill="#000000">Token(COMPASS_DIR, &#39;N&#39;)</text>
</g>
<!-- 58 -->
<g id="node59" class="node">
<title>58</title>
<ellipse fill="none" stroke="#000000" cx="1300.0755" cy="-315" rx="129.0752" ry="18"/>
<text text-anchor="middle" x="1300.0755" y="-310.8" font-family="Times,serif" font-size="14.00" fill="#000000">Token(COMPASS_DIR, &#39;W&#39;)</text>
</g>
<!-- 59 -->
<g id="node60" class="node">
<title>59</title>
<ellipse fill="#99cec7" stroke="#000000" cx="1000.1115" cy="-342" rx="36.5383" ry="18"/>
<text text-anchor="middle" x="1000.1115" y="-337.8" font-family="Times,serif" font-size="14.00" fill="#000000">crange</text>
</g>
<!-- 59&#45;&gt;57 -->
<g id="edge50" class="edge">
<title>59&#45;&gt;57</title>
<path fill="none" stroke="#000000" d="M1036.2941,-345.2568C1072.5984,-348.5246 1130.4831,-353.7349 1182.7905,-358.4431"/>
<polygon fill="#000000" stroke="#000000" points="1182.5537,-361.9358 1192.8272,-359.3465 1183.1813,-354.964 1182.5537,-361.9358"/>
</g>
<!-- 59&#45;&gt;58 -->
<g id="edge51" class="edge">
<title>59&#45;&gt;58</title>
<path fill="none" stroke="#000000" d="M1036.2941,-338.7432C1072.3056,-335.5017 1129.5509,-330.3491 1181.5239,-325.6709"/>
<polygon fill="#000000" stroke="#000000" points="1181.854,-329.1554 1191.5,-324.773 1181.2264,-322.1836 1181.854,-329.1554"/>
</g>
<!-- 60 -->
<g id="node61" class="node">
<title>60</title>
<ellipse fill="none" stroke="#000000" cx="1000.1115" cy="-288" rx="116.2972" ry="18"/>
<text text-anchor="middle" x="1000.1115" y="-283.8" font-family="Times,serif" font-size="14.00" fill="#000000">Token(VARNAME, &#39;any&#39;)</text>
</g>
<!-- 61 -->
<g id="node62" class="node">
<title>61</title>
<ellipse fill="#d7fdc3" stroke="#000000" cx="703.3632" cy="-288" rx="63.6832" ry="18"/>
<text text-anchor="middle" x="703.3632" y="-283.8" font-family="Times,serif" font-size="14.00" fill="#000000">medial_range</text>
</g>
<!-- 61&#45;&gt;59 -->
<g id="edge52" class="edge">
<title>61&#45;&gt;59</title>
<path fill="none" stroke="#000000" d="M757.1021,-297.779C813.7848,-308.0937 902.0926,-324.1633 955.1965,-333.8267"/>
<polygon fill="#000000" stroke="#000000" points="954.863,-337.3234 965.3281,-335.6704 956.1163,-330.4365 954.863,-337.3234"/>
</g>
<!-- 61&#45;&gt;60 -->
<g id="edge53" class="edge">
<title>61&#45;&gt;60</title>
<path fill="none" stroke="#000000" d="M767.0231,-288C798.1564,-288 836.7732,-288 873.5603,-288"/>
<polygon fill="#000000" stroke="#000000" points="873.8799,-291.5001 883.8799,-288 873.8798,-284.5001 873.8799,-291.5001"/>
</g>
<!-- 62 -->
<g id="node63" class="node">
<title>62</title>
<ellipse fill="#e39ff6" stroke="#000000" cx="384.0901" cy="-288" rx="37.1424" ry="18"/>
<text text-anchor="middle" x="384.0901" y="-283.8" font-family="Times,serif" font-size="14.00" fill="#000000">napkin</text>
</g>
<!-- 62&#45;&gt;61 -->
<g id="edge54" class="edge">
<title>62&#45;&gt;61</title>
<path fill="none" stroke="#000000" d="M421.6536,-288C472.5056,-288 564.3508,-288 629.3282,-288"/>
<polygon fill="#000000" stroke="#000000" points="629.5157,-291.5001 639.5156,-288 629.5156,-284.5001 629.5157,-291.5001"/>
</g>
<!-- 63 -->
<g id="node64" class="node">
<title>63</title>
<ellipse fill="none" stroke="#000000" cx="1000.1115" cy="-234" rx="134.8529" ry="18"/>
<text text-anchor="middle" x="1000.1115" y="-229.8" font-family="Times,serif" font-size="14.00" fill="#000000">Token(PREVIOUS_BIND, &#39;E&#39;)</text>
</g>
<!-- 64 -->
<g id="node65" class="node">
<title>64</title>
<ellipse fill="none" stroke="#000000" cx="1300.0755" cy="-234" rx="74.12" ry="18"/>
<text text-anchor="middle" x="1300.0755" y="-229.8" font-family="Times,serif" font-size="14.00" fill="#000000">Token(INT, &#39;0&#39;)</text>
</g>
<!-- 65 -->
<g id="node66" class="node">
<title>65</title>
<ellipse fill="none" stroke="#000000" cx="1300.0755" cy="-180" rx="74.12" ry="18"/>
<text text-anchor="middle" x="1300.0755" y="-175.8" font-family="Times,serif" font-size="14.00" fill="#000000">Token(INT, &#39;4&#39;)</text>
</g>
<!-- 66 -->
<g id="node67" class="node">
<title>66</title>
<ellipse fill="#89c2d4" stroke="#000000" cx="1300.0755" cy="-126" rx="55.0343" ry="18"/>
<text text-anchor="middle" x="1300.0755" y="-121.8" font-family="Times,serif" font-size="14.00" fill="#000000">extend_last</text>
</g>
<!-- 67 -->
<g id="node68" class="node">
<title>67</title>
<ellipse fill="#92a2f9" stroke="#000000" cx="1000.1115" cy="-180" rx="72.3477" ry="18"/>
<text text-anchor="middle" x="1000.1115" y="-175.8" font-family="Times,serif" font-size="14.00" fill="#000000">map_var_literal</text>
</g>
<!-- 67&#45;&gt;64 -->
<g id="edge55" class="edge">
<title>67&#45;&gt;64</title>
<path fill="none" stroke="#000000" d="M1058.6596,-190.5399C1107.811,-199.3882 1178.1478,-212.0504 1230.231,-221.4265"/>
<polygon fill="#000000" stroke="#000000" points="1229.9307,-224.9286 1240.3926,-223.2558 1231.1709,-218.0393 1229.9307,-224.9286"/>
</g>
<!-- 67&#45;&gt;65 -->
<g id="edge56" class="edge">
<title>67&#45;&gt;65</title>
<path fill="none" stroke="#000000" d="M1072.342,-180C1115.4546,-180 1170.4143,-180 1215.5409,-180"/>
<polygon fill="#000000" stroke="#000000" points="1215.6016,-183.5001 1225.6015,-180 1215.6015,-176.5001 1215.6016,-183.5001"/>
</g>
<!-- 67&#45;&gt;66 -->
<g id="edge57" class="edge">
<title>67&#45;&gt;66</title>
<path fill="none" stroke="#000000" d="M1058.6596,-169.4601C1111.5174,-159.9445 1188.876,-146.0183 1241.685,-136.5116"/>
<polygon fill="#000000" stroke="#000000" points="1242.3547,-139.9473 1251.5764,-134.7309 1241.1144,-133.0581 1242.3547,-139.9473"/>
</g>
<!-- 68 -->
<g id="node69" class="node">
<title>68</title>
<ellipse fill="#e7b2b4" stroke="#000000" cx="703.3632" cy="-234" rx="44.6665" ry="18"/>
<text text-anchor="middle" x="703.3632" y="-229.8" font-family="Times,serif" font-size="14.00" fill="#000000">mapping</text>
</g>
<!-- 68&#45;&gt;63 -->
<g id="edge58" class="edge">
<title>68&#45;&gt;63</title>
<path fill="none" stroke="#000000" d="M748.4329,-234C777.084,-234 815.9376,-234 854.5383,-234"/>
<polygon fill="#000000" stroke="#000000" points="854.8731,-237.5001 864.8731,-234 854.873,-230.5001 854.8731,-237.5001"/>
</g>
<!-- 68&#45;&gt;67 -->
<g id="edge59" class="edge">
<title>68&#45;&gt;67</title>
<path fill="none" stroke="#000000" d="M744.3132,-226.5482C792.61,-217.7595 873.6369,-203.0149 931.5575,-192.4749"/>
<polygon fill="#000000" stroke="#000000" points="932.5166,-195.858 941.7284,-190.6241 931.2634,-188.9711 932.5166,-195.858"/>
</g>
<!-- 69 -->
<g id="node70" class="node">
<title>69</title>
<ellipse fill="#c2c1c2" stroke="#000000" cx="384.0901" cy="-234" rx="28.9696" ry="18"/>
<text text-anchor="middle" x="384.0901" y="-229.8" font-family="Times,serif" font-size="14.00" fill="#000000">final</text>
</g>
<!-- 69&#45;&gt;68 -->
<g id="edge60" class="edge">
<title>69&#45;&gt;68</title>
<path fill="none" stroke="#000000" d="M412.9866,-234C466.0593,-234 579.871,-234 648.1859,-234"/>
<polygon fill="#000000" stroke="#000000" points="648.3326,-237.5001 658.3326,-234 648.3325,-230.5001 648.3326,-237.5001"/>
</g>
<!-- 70 -->
<g id="node71" class="node">
<title>70</title>
<ellipse fill="none" stroke="#000000" cx="384.0901" cy="-180" rx="102.646" ry="18"/>
<text text-anchor="middle" x="384.0901" y="-175.8" font-family="Times,serif" font-size="14.00" fill="#000000">Token(ARROW, &#39; &#45;&gt; &#39;)</text>
</g>
<!-- 71 -->
<g id="node72" class="node">
<title>71</title>
<ellipse fill="none" stroke="#000000" cx="703.3632" cy="-126" rx="125.6439" ry="18"/>
<text text-anchor="middle" x="703.3632" y="-121.8" font-family="Times,serif" font-size="14.00" fill="#000000">Token(COMPASS_DIR, &#39;E&#39;)</text>
</g>
<!-- 72 -->
<g id="node73" class="node">
<title>72</title>
<ellipse fill="none" stroke="#000000" cx="1000.1115" cy="-126" rx="74.12" ry="18"/>
<text text-anchor="middle" x="1000.1115" y="-121.8" font-family="Times,serif" font-size="14.00" fill="#000000">Token(INT, &#39;4&#39;)</text>
</g>
<!-- 73 -->
<g id="node74" class="node">
<title>73</title>
<ellipse fill="#aadf93" stroke="#000000" cx="1000.1115" cy="-72" rx="61.9982" ry="18"/>
<text text-anchor="middle" x="1000.1115" y="-67.8" font-family="Times,serif" font-size="14.00" fill="#000000">no_transition</text>
</g>
<!-- 74 -->
<g id="node75" class="node">
<title>74</title>
<ellipse fill="#89c2d4" stroke="#000000" cx="1000.1115" cy="-18" rx="55.0343" ry="18"/>
<text text-anchor="middle" x="1000.1115" y="-13.8" font-family="Times,serif" font-size="14.00" fill="#000000">extend_last</text>
</g>
<!-- 75 -->
<g id="node76" class="node">
<title>75</title>
<ellipse fill="#a0d497" stroke="#000000" cx="703.3632" cy="-72" rx="72.3477" ry="18"/>
<text text-anchor="middle" x="703.3632" y="-67.8" font-family="Times,serif" font-size="14.00" fill="#000000">ptcd_var_literal</text>
</g>
<!-- 75&#45;&gt;72 -->
<g id="edge61" class="edge">
<title>75&#45;&gt;72</title>
<path fill="none" stroke="#000000" d="M761.9911,-82.6687C810.4469,-91.4863 879.3582,-104.0262 930.5902,-113.3491"/>
<polygon fill="#000000" stroke="#000000" points="930.1246,-116.8217 940.5896,-115.1687 931.3778,-109.9348 930.1246,-116.8217"/>
</g>
<!-- 75&#45;&gt;73 -->
<g id="edge62" class="edge">
<title>75&#45;&gt;73</title>
<path fill="none" stroke="#000000" d="M775.5765,-72C821.671,-72 881.22,-72 927.4091,-72"/>
<polygon fill="#000000" stroke="#000000" points="927.6482,-75.5001 937.6482,-72 927.6482,-68.5001 927.6482,-75.5001"/>
</g>
<!-- 75&#45;&gt;74 -->
<g id="edge63" class="edge">
<title>75&#45;&gt;74</title>
<path fill="none" stroke="#000000" d="M761.9911,-61.3313C814.089,-51.8509 889.833,-38.0676 941.8267,-28.6062"/>
<polygon fill="#000000" stroke="#000000" points="942.683,-32.008 951.8948,-26.7741 941.4297,-25.1211 942.683,-32.008"/>
</g>
<!-- 76 -->
<g id="node77" class="node">
<title>76</title>
<ellipse fill="#96b2b2" stroke="#000000" cx="384.0901" cy="-126" rx="67.7779" ry="18"/>
<text text-anchor="middle" x="384.0901" y="-121.8" font-family="Times,serif" font-size="14.00" fill="#000000">ptcd_map_self</text>
</g>
<!-- 76&#45;&gt;71 -->
<g id="edge64" class="edge">
<title>76&#45;&gt;71</title>
<path fill="none" stroke="#000000" d="M452.1906,-126C485.7879,-126 527.5555,-126 567.325,-126"/>
<polygon fill="#000000" stroke="#000000" points="567.3866,-129.5001 577.3866,-126 567.3866,-122.5001 567.3866,-129.5001"/>
</g>
<!-- 76&#45;&gt;75 -->
<g id="edge65" class="edge">
<title>76&#45;&gt;75</title>
<path fill="none" stroke="#000000" d="M441.5385,-116.2835C495.3115,-107.1887 575.7717,-93.5801 633.2934,-83.8512"/>
<polygon fill="#000000" stroke="#000000" points="634.1194,-87.2613 643.3957,-82.1426 632.952,-80.3593 634.1194,-87.2613"/>
</g>
<!-- 77 -->
<g id="node78" class="node">
<title>77</title>
<ellipse fill="#c3adfe" stroke="#000000" cx="143.1252" cy="-261" rx="47.5274" ry="18"/>
<text text-anchor="middle" x="143.1252" y="-256.8" font-family="Times,serif" font-size="14.00" fill="#000000">transition</text>
</g>
<!-- 77&#45;&gt;56 -->
<g id="edge66" class="edge">
<title>77&#45;&gt;56</title>
<path fill="none" stroke="#000000" d="M163.4572,-277.5215C179.6201,-289.7865 203.3149,-305.9023 226.6389,-315 263.4766,-329.3688 308.1175,-336.1074 340.4449,-339.2579"/>
<polygon fill="#000000" stroke="#000000" points="340.2094,-342.7508 350.4826,-340.1599 340.836,-335.7789 340.2094,-342.7508"/>
</g>
<!-- 77&#45;&gt;62 -->
<g id="edge67" class="edge">
<title>77&#45;&gt;62</title>
<path fill="none" stroke="#000000" d="M188.7321,-266.1102C231.3366,-270.8841 294.6366,-277.9768 337.5424,-282.7844"/>
<polygon fill="#000000" stroke="#000000" points="337.389,-286.289 347.7166,-283.9244 338.1685,-279.3325 337.389,-286.289"/>
</g>
<!-- 77&#45;&gt;69 -->
<g id="edge68" class="edge">
<title>77&#45;&gt;69</title>
<path fill="none" stroke="#000000" d="M188.7321,-255.8898C234.1097,-250.8052 302.9645,-243.0901 345.65,-238.3072"/>
<polygon fill="#000000" stroke="#000000" points="346.0989,-241.7789 355.647,-237.187 345.3194,-234.8224 346.0989,-241.7789"/>
</g>
<!-- 77&#45;&gt;70 -->
<g id="edge69" class="edge">
<title>77&#45;&gt;70</title>
<path fill="none" stroke="#000000" d="M163.4572,-244.4785C179.6201,-232.2135 203.3149,-216.0977 226.6389,-207 244.8745,-199.887 265.0224,-194.6439 284.6421,-190.7802"/>
<polygon fill="#000000" stroke="#000000" points="285.3399,-194.2105 294.5294,-188.9377 284.0574,-187.329 285.3399,-194.2105"/>
</g>
<!-- 77&#45;&gt;76 -->
<g id="edge70" class="edge">
<title>77&#45;&gt;76</title>
<path fill="none" stroke="#000000" d="M151.5888,-243.0844C164.2282,-218.458 190.4786,-174.7344 226.6389,-153 250.2463,-138.8106 279.2331,-131.567 305.8728,-128.0156"/>
<polygon fill="#000000" stroke="#000000" points="306.4298,-131.4743 315.9517,-126.8285 305.6109,-124.5223 306.4298,-131.4743"/>
</g>
<!-- 78 -->
<g id="node79" class="node">
<title>78</title>
<ellipse fill="#e0b899" stroke="#000000" cx="29.8057" cy="-1044" rx="29.6127" ry="18"/>
<text text-anchor="middle" x="29.8057" y="-1039.8" font-family="Times,serif" font-size="14.00" fill="#000000">table</text>
</g>
<!-- 78&#45;&gt;2 -->
<g id="edge71" class="edge">
<title>78&#45;&gt;2</title>
<path fill="none" stroke="#000000" d="M32.3723,-1062.2533C39.0106,-1106.6355 58.8484,-1223.2198 95.6115,-1314 103.4383,-1333.327 115.3041,-1353.5602 125.2195,-1368.9701"/>
<polygon fill="#000000" stroke="#000000" points="122.3702,-1371.0074 130.7869,-1377.4425 128.2202,-1367.1632 122.3702,-1371.0074"/>
</g>
<!-- 78&#45;&gt;5 -->
<g id="edge72" class="edge">
<title>78&#45;&gt;5</title>
<path fill="none" stroke="#000000" d="M36.0983,-1061.8664C46.9634,-1092.1143 70.5027,-1155.0876 95.6115,-1206 104.8947,-1224.8233 116.8565,-1245.1984 126.4555,-1260.8045"/>
<polygon fill="#000000" stroke="#000000" points="123.5437,-1262.7499 131.7961,-1269.3943 129.4884,-1259.0538 123.5437,-1262.7499"/>
</g>
<!-- 78&#45;&gt;8 -->
<g id="edge73" class="edge">
<title>78&#45;&gt;8</title>
<path fill="none" stroke="#000000" d="M43.4747,-1060.2842C62.9999,-1083.545 99.0485,-1126.4905 122.0176,-1153.854"/>
<polygon fill="#000000" stroke="#000000" points="119.5832,-1156.3978 128.6932,-1161.8069 124.9447,-1151.8973 119.5832,-1156.3978"/>
</g>
<!-- 78&#45;&gt;13 -->
<g id="edge74" class="edge">
<title>78&#45;&gt;13</title>
<path fill="none" stroke="#000000" d="M57.8173,-1050.6742C68.988,-1053.3357 82.1748,-1056.4777 94.7975,-1059.4852"/>
<polygon fill="#000000" stroke="#000000" points="94.2116,-1062.9435 104.7505,-1061.8567 95.8341,-1056.1341 94.2116,-1062.9435"/>
</g>
<!-- 78&#45;&gt;18 -->
<g id="edge75" class="edge">
<title>78&#45;&gt;18</title>
<path fill="none" stroke="#000000" d="M57.8173,-1037.3258C68.988,-1034.6643 82.1748,-1031.5223 94.7975,-1028.5148"/>
<polygon fill="#000000" stroke="#000000" points="95.8341,-1031.8659 104.7505,-1026.1433 94.2116,-1025.0565 95.8341,-1031.8659"/>
</g>
<!-- 78&#45;&gt;31 -->
<g id="edge76" class="edge">
<title>78&#45;&gt;31</title>
<path fill="none" stroke="#000000" d="M41.5061,-1027.2733C61.2319,-999.0736 101.2483,-941.8667 124.7509,-908.2677"/>
<polygon fill="#000000" stroke="#000000" points="127.7658,-910.0638 130.6297,-899.8634 122.0298,-906.0514 127.7658,-910.0638"/>
</g>
<!-- 78&#45;&gt;54 -->
<g id="edge77" class="edge">
<title>78&#45;&gt;54</title>
<path fill="none" stroke="#000000" d="M34.8212,-1026.0751C52.6985,-962.182 113.3985,-745.2421 135.2257,-667.2325"/>
<polygon fill="#000000" stroke="#000000" points="138.7151,-667.7507 138.0391,-657.1774 131.974,-665.8645 138.7151,-667.7507"/>
</g>
<!-- 78&#45;&gt;77 -->
<g id="edge78" class="edge">
<title>78&#45;&gt;77</title>
<path fill="none" stroke="#000000" d="M32.4401,-1025.7978C47.3258,-922.9421 120.887,-414.6587 139.0603,-289.0872"/>
<polygon fill="#000000" stroke="#000000" points="142.5368,-289.5007 140.5053,-279.1025 135.609,-288.498 142.5368,-289.5007"/>
</g>
</g>
</svg>
