<?xml version="1.0" encoding="UTF-8" standalone="no"?>
<!DOCTYPE svg PUBLIC "-//W3C//DTD SVG 1.1//EN"
 "http://www.w3.org/Graphics/SVG/1.1/DTD/svg11.dtd">
<!-- Generated by graphviz version 2.40.1 (20161225.0304)
 -->
<!-- Title: G Pages: 1 -->
<svg width="1709pt" height="1002pt"
 viewBox="0.00 0.00 1708.66 1002.00" xmlns="http://www.w3.org/2000/svg" xmlns:xlink="http://www.w3.org/1999/xlink">
<g id="graph0" class="graph" transform="scale(1 1) rotate(0) translate(4 998)">
<title>G</title>
<polygon fill="#ffffff" stroke="transparent" points="-4,4 -4,-998 1704.6645,-998 1704.6645,4 -4,4"/>
<!-- 0 -->
<g id="node1" class="node">
<title>0</title>
<ellipse fill="none" stroke="#000000" cx="341.7154" cy="-774" rx="115.1532" ry="18"/>
<text text-anchor="middle" x="341.7154" y="-769.8" font-family="Times,serif" font-size="14.00" fill="#000000">Token(VARNAME, &#39;foo&#39;)</text>
</g>
<!-- 1 -->
<g id="node2" class="node">
<title>1</title>
<ellipse fill="none" stroke="#000000" cx="1117.1198" cy="-970" rx="74.12" ry="18"/>
<text text-anchor="middle" x="1117.1198" y="-965.8" font-family="Times,serif" font-size="14.00" fill="#000000">Token(INT, &#39;1&#39;)</text>
</g>
<!-- 2 -->
<g id="node3" class="node">
<title>2</title>
<ellipse fill="none" stroke="#000000" cx="1361.2851" cy="-976" rx="74.12" ry="18"/>
<text text-anchor="middle" x="1361.2851" y="-971.8" font-family="Times,serif" font-size="14.00" fill="#000000">Token(INT, &#39;1&#39;)</text>
</g>
<!-- 3 -->
<g id="node4" class="node">
<title>3</title>
<ellipse fill="none" stroke="#000000" cx="1361.2851" cy="-922" rx="74.12" ry="18"/>
<text text-anchor="middle" x="1361.2851" y="-917.8" font-family="Times,serif" font-size="14.00" fill="#000000">Token(INT, &#39;2&#39;)</text>
</g>
<!-- 4 -->
<g id="node5" class="node">
<title>4</title>
<ellipse fill="#fdc1ad" stroke="#000000" cx="1117.1198" cy="-916" rx="50.9367" ry="18"/>
<text text-anchor="middle" x="1117.1198" y="-911.8" font-family="Times,serif" font-size="14.00" fill="#000000">var_literal</text>
</g>
<!-- 4&#45;&gt;2 -->
<g id="edge1" class="edge">
<title>4&#45;&gt;2</title>
<path fill="none" stroke="#000000" d="M1162.581,-924.0983C1188.5945,-928.9993 1221.7657,-935.7012 1250.9753,-943 1269.302,-947.5794 1289.1298,-953.2746 1306.8531,-958.6379"/>
<polygon fill="#000000" stroke="#000000" points="1305.8737,-961.9983 1316.46,-961.5742 1307.9198,-955.304 1305.8737,-961.9983"/>
</g>
<!-- 4&#45;&gt;3 -->
<g id="edge2" class="edge">
<title>4&#45;&gt;3</title>
<path fill="none" stroke="#000000" d="M1168.0077,-917.2505C1199.5621,-918.0259 1240.8704,-919.041 1277.1946,-919.9336"/>
<polygon fill="#000000" stroke="#000000" points="1277.2125,-923.435 1287.2955,-920.1818 1277.3846,-916.4371 1277.2125,-923.435"/>
</g>
<!-- 5 -->
<g id="node6" class="node">
<title>5</title>
<ellipse fill="none" stroke="#000000" cx="1586.1297" cy="-908" rx="74.12" ry="18"/>
<text text-anchor="middle" x="1586.1297" y="-903.8" font-family="Times,serif" font-size="14.00" fill="#000000">Token(INT, &#39;2&#39;)</text>
</g>
<!-- 6 -->
<g id="node7" class="node">
<title>6</title>
<ellipse fill="none" stroke="#000000" cx="1586.1297" cy="-854" rx="74.12" ry="18"/>
<text text-anchor="middle" x="1586.1297" y="-849.8" font-family="Times,serif" font-size="14.00" fill="#000000">Token(INT, &#39;3&#39;)</text>
</g>
<!-- 7 -->
<g id="node8" class="node">
<title>7</title>
<ellipse fill="#fdc1ad" stroke="#000000" cx="1361.2851" cy="-868" rx="50.9367" ry="18"/>
<text text-anchor="middle" x="1361.2851" y="-863.8" font-family="Times,serif" font-size="14.00" fill="#000000">var_literal</text>
</g>
<!-- 7&#45;&gt;5 -->
<g id="edge3" class="edge">
<title>7&#45;&gt;5</title>
<path fill="none" stroke="#000000" d="M1406.7857,-876.0946C1438.2203,-881.6868 1480.6301,-889.2316 1516.3168,-895.5802"/>
<polygon fill="#000000" stroke="#000000" points="1515.7308,-899.0309 1526.1892,-897.3366 1516.9569,-892.1391 1515.7308,-899.0309"/>
</g>
<!-- 7&#45;&gt;6 -->
<g id="edge4" class="edge">
<title>7&#45;&gt;6</title>
<path fill="none" stroke="#000000" d="M1411.4647,-864.8756C1438.5585,-863.1886 1472.6952,-861.063 1503.5866,-859.1396"/>
<polygon fill="#000000" stroke="#000000" points="1504.1604,-862.6107 1513.9235,-858.4959 1503.7253,-855.6242 1504.1604,-862.6107"/>
</g>
<!-- 8 -->
<g id="node9" class="node">
<title>8</title>
<ellipse fill="none" stroke="#000000" cx="1361.2851" cy="-814" rx="74.12" ry="18"/>
<text text-anchor="middle" x="1361.2851" y="-809.8" font-family="Times,serif" font-size="14.00" fill="#000000">Token(INT, &#39;4&#39;)</text>
</g>
<!-- 9 -->
<g id="node10" class="node">
<title>9</title>
<ellipse fill="#c588c7" stroke="#000000" cx="1117.1198" cy="-855" rx="28.991" ry="18"/>
<text text-anchor="middle" x="1117.1198" y="-850.8" font-family="Times,serif" font-size="14.00" fill="#000000">mult</text>
</g>
<!-- 9&#45;&gt;7 -->
<g id="edge5" class="edge">
<title>9&#45;&gt;7</title>
<path fill="none" stroke="#000000" d="M1146.0876,-856.5423C1183.9442,-858.5579 1251.2108,-862.1394 1300.4893,-864.7631"/>
<polygon fill="#000000" stroke="#000000" points="1300.5427,-868.2708 1310.7147,-865.3075 1300.915,-861.2807 1300.5427,-868.2708"/>
</g>
<!-- 9&#45;&gt;8 -->
<g id="edge6" class="edge">
<title>9&#45;&gt;8</title>
<path fill="none" stroke="#000000" d="M1145.1287,-850.2968C1180.2119,-844.4056 1241.5946,-834.0983 1290.0054,-825.9692"/>
<polygon fill="#000000" stroke="#000000" points="1290.8425,-829.3777 1300.1248,-824.27 1289.6832,-822.4744 1290.8425,-829.3777"/>
</g>
<!-- 10 -->
<g id="node11" class="node">
<title>10</title>
<ellipse fill="none" stroke="#000000" cx="1586.1297" cy="-787" rx="74.12" ry="18"/>
<text text-anchor="middle" x="1586.1297" y="-782.8" font-family="Times,serif" font-size="14.00" fill="#000000">Token(INT, &#39;5&#39;)</text>
</g>
<!-- 11 -->
<g id="node12" class="node">
<title>11</title>
<ellipse fill="none" stroke="#000000" cx="1586.1297" cy="-733" rx="114.5696" ry="18"/>
<text text-anchor="middle" x="1586.1297" y="-728.8" font-family="Times,serif" font-size="14.00" fill="#000000">Token(VARNAME, &#39;bar&#39;)</text>
</g>
<!-- 12 -->
<g id="node13" class="node">
<title>12</title>
<ellipse fill="#c588c7" stroke="#000000" cx="1361.2851" cy="-760" rx="28.991" ry="18"/>
<text text-anchor="middle" x="1361.2851" y="-755.8" font-family="Times,serif" font-size="14.00" fill="#000000">mult</text>
</g>
<!-- 12&#45;&gt;10 -->
<g id="edge7" class="edge">
<title>12&#45;&gt;10</title>
<path fill="none" stroke="#000000" d="M1389.7618,-763.4196C1419.6738,-767.0115 1468.0062,-772.8154 1509.2341,-777.7662"/>
<polygon fill="#000000" stroke="#000000" points="1508.9269,-781.2543 1519.2729,-778.9716 1509.7615,-774.3043 1508.9269,-781.2543"/>
</g>
<!-- 12&#45;&gt;11 -->
<g id="edge8" class="edge">
<title>12&#45;&gt;11</title>
<path fill="none" stroke="#000000" d="M1389.7618,-756.5804C1413.9073,-753.681 1450.0555,-749.3402 1484.7808,-745.1703"/>
<polygon fill="#000000" stroke="#000000" points="1485.4984,-748.6093 1495.0098,-743.9419 1484.6638,-741.6593 1485.4984,-748.6093"/>
</g>
<!-- 13 -->
<g id="node14" class="node">
<title>13</title>
<ellipse fill="none" stroke="#000000" cx="1361.2851" cy="-706" rx="74.12" ry="18"/>
<text text-anchor="middle" x="1361.2851" y="-701.8" font-family="Times,serif" font-size="14.00" fill="#000000">Token(INT, &#39;6&#39;)</text>
</g>
<!-- 14 -->
<g id="node15" class="node">
<title>14</title>
<ellipse fill="#9c91f3" stroke="#000000" cx="1117.1198" cy="-774" rx="27.2661" ry="18"/>
<text text-anchor="middle" x="1117.1198" y="-769.8" font-family="Times,serif" font-size="14.00" fill="#000000">subt</text>
</g>
<!-- 14&#45;&gt;12 -->
<g id="edge9" class="edge">
<title>14&#45;&gt;12</title>
<path fill="none" stroke="#000000" d="M1144.1827,-772.4483C1187.5359,-769.9625 1272.7267,-765.0778 1322.5296,-762.2222"/>
<polygon fill="#000000" stroke="#000000" points="1322.8088,-765.712 1332.592,-761.6452 1322.4081,-758.7235 1322.8088,-765.712"/>
</g>
<!-- 14&#45;&gt;13 -->
<g id="edge10" class="edge">
<title>14&#45;&gt;13</title>
<path fill="none" stroke="#000000" d="M1143.6063,-770.0379C1170.847,-765.6428 1214.3465,-757.73 1250.9753,-747 1267.4503,-742.1739 1270.9067,-739.0428 1286.9753,-733 1294.3828,-730.2143 1302.223,-727.3139 1309.9252,-724.4916"/>
<polygon fill="#000000" stroke="#000000" points="1311.3709,-727.6899 1319.5646,-720.9732 1308.9707,-721.1142 1311.3709,-727.6899"/>
</g>
<!-- 15 -->
<g id="node16" class="node">
<title>15</title>
<ellipse fill="#fdc1ad" stroke="#000000" cx="872.9546" cy="-855" rx="50.9367" ry="18"/>
<text text-anchor="middle" x="872.9546" y="-850.8" font-family="Times,serif" font-size="14.00" fill="#000000">var_literal</text>
</g>
<!-- 15&#45;&gt;1 -->
<g id="edge11" class="edge">
<title>15&#45;&gt;1</title>
<path fill="none" stroke="#000000" d="M889.1573,-872.1636C909.2585,-892.3715 945.5169,-925.4039 983.2644,-943 1000.5673,-951.0658 1020.2293,-956.7288 1039.0542,-960.7026"/>
<polygon fill="#000000" stroke="#000000" points="1038.6159,-964.1836 1049.1043,-962.6856 1039.971,-957.316 1038.6159,-964.1836"/>
</g>
<!-- 15&#45;&gt;4 -->
<g id="edge12" class="edge">
<title>15&#45;&gt;4</title>
<path fill="none" stroke="#000000" d="M914.6507,-865.417C956.4377,-875.8566 1020.8438,-891.9473 1065.7579,-903.1682"/>
<polygon fill="#000000" stroke="#000000" points="1065.0456,-906.5978 1075.5957,-905.626 1066.7423,-899.8065 1065.0456,-906.5978"/>
</g>
<!-- 15&#45;&gt;9 -->
<g id="edge13" class="edge">
<title>15&#45;&gt;9</title>
<path fill="none" stroke="#000000" d="M923.8424,-855C969.7104,-855 1036.1882,-855 1078.0087,-855"/>
<polygon fill="#000000" stroke="#000000" points="1078.0823,-858.5001 1088.0823,-855 1078.0822,-851.5001 1078.0823,-858.5001"/>
</g>
<!-- 15&#45;&gt;14 -->
<g id="edge14" class="edge">
<title>15&#45;&gt;14</title>
<path fill="none" stroke="#000000" d="M910.038,-842.6978C957.0443,-827.1039 1037.4265,-800.4377 1082.9847,-785.3241"/>
<polygon fill="#000000" stroke="#000000" points="1084.3051,-788.5737 1092.6944,-782.103 1082.1009,-781.9297 1084.3051,-788.5737"/>
</g>
<!-- 16 -->
<g id="node17" class="node">
<title>16</title>
<ellipse fill="none" stroke="#000000" cx="1117.1198" cy="-720" rx="74.12" ry="18"/>
<text text-anchor="middle" x="1117.1198" y="-715.8" font-family="Times,serif" font-size="14.00" fill="#000000">Token(INT, &#39;7&#39;)</text>
</g>
<!-- 17 -->
<g id="node18" class="node">
<title>17</title>
<ellipse fill="none" stroke="#000000" cx="1117.1198" cy="-666" rx="74.12" ry="18"/>
<text text-anchor="middle" x="1117.1198" y="-661.8" font-family="Times,serif" font-size="14.00" fill="#000000">Token(INT, &#39;8&#39;)</text>
</g>
<!-- 18 -->
<g id="node19" class="node">
<title>18</title>
<ellipse fill="#fdc1ad" stroke="#000000" cx="872.9546" cy="-720" rx="50.9367" ry="18"/>
<text text-anchor="middle" x="872.9546" y="-715.8" font-family="Times,serif" font-size="14.00" fill="#000000">var_literal</text>
</g>
<!-- 18&#45;&gt;16 -->
<g id="edge15" class="edge">
<title>18&#45;&gt;16</title>
<path fill="none" stroke="#000000" d="M923.8424,-720C955.2691,-720 996.3708,-720 1032.588,-720"/>
<polygon fill="#000000" stroke="#000000" points="1032.6615,-723.5001 1042.6614,-720 1032.6614,-716.5001 1032.6615,-723.5001"/>
</g>
<!-- 18&#45;&gt;17 -->
<g id="edge16" class="edge">
<title>18&#45;&gt;17</title>
<path fill="none" stroke="#000000" d="M914.2425,-709.4687C934.9193,-704.3032 960.3651,-698.1097 983.2644,-693 1004.5372,-688.2532 1027.7949,-683.4335 1048.8681,-679.2054"/>
<polygon fill="#000000" stroke="#000000" points="1049.5776,-682.6329 1058.6994,-677.2437 1048.2078,-675.7682 1049.5776,-682.6329"/>
</g>
<!-- 19 -->
<g id="node20" class="node">
<title>19</title>
<ellipse fill="#b9dcfa" stroke="#000000" cx="627.7184" cy="-774" rx="44.0833" ry="18"/>
<text text-anchor="middle" x="627.7184" y="-769.8" font-family="Times,serif" font-size="14.00" fill="#000000">var_subt</text>
</g>
<!-- 19&#45;&gt;15 -->
<g id="edge17" class="edge">
<title>19&#45;&gt;15</title>
<path fill="none" stroke="#000000" d="M662.3346,-785.4335C705.1963,-799.5905 778.3788,-823.7622 826.2008,-839.5575"/>
<polygon fill="#000000" stroke="#000000" points="825.1122,-842.8839 835.7054,-842.6968 827.3076,-836.237 825.1122,-842.8839"/>
</g>
<!-- 19&#45;&gt;18 -->
<g id="edge18" class="edge">
<title>19&#45;&gt;18</title>
<path fill="none" stroke="#000000" d="M667.9594,-766.412C694.8324,-761.2306 730.93,-754.0512 762.6448,-747 782.0589,-742.6836 803.3,-737.5769 821.9142,-732.9727"/>
<polygon fill="#000000" stroke="#000000" points="822.8104,-736.3565 831.6701,-730.5465 821.1209,-729.5634 822.8104,-736.3565"/>
</g>
<!-- 20 -->
<g id="node21" class="node">
<title>20</title>
<ellipse fill="none" stroke="#000000" cx="627.7184" cy="-720" rx="115.7136" ry="18"/>
<text text-anchor="middle" x="627.7184" y="-715.8" font-family="Times,serif" font-size="14.00" fill="#000000">Token(VARNAME, &#39;baz&#39;)</text>
</g>
<!-- 21 -->
<g id="node22" class="node">
<title>21</title>
<ellipse fill="#b9dcfa" stroke="#000000" cx="341.7154" cy="-720" rx="44.0833" ry="18"/>
<text text-anchor="middle" x="341.7154" y="-715.8" font-family="Times,serif" font-size="14.00" fill="#000000">var_subt</text>
</g>
<!-- 21&#45;&gt;19 -->
<g id="edge19" class="edge">
<title>21&#45;&gt;19</title>
<path fill="none" stroke="#000000" d="M382.0861,-727.6224C433.2556,-737.2836 521.4797,-753.9411 577.101,-764.443"/>
<polygon fill="#000000" stroke="#000000" points="576.6153,-767.913 587.0911,-766.3292 577.9141,-761.0346 576.6153,-767.913"/>
</g>
<!-- 21&#45;&gt;20 -->
<g id="edge20" class="edge">
<title>21&#45;&gt;20</title>
<path fill="none" stroke="#000000" d="M386.0896,-720C417.1811,-720 460.4005,-720 501.7026,-720"/>
<polygon fill="#000000" stroke="#000000" points="501.872,-723.5001 511.872,-720 501.872,-716.5001 501.872,-723.5001"/>
</g>
<!-- 22 -->
<g id="node23" class="node">
<title>22</title>
<ellipse fill="#b3b98a" stroke="#000000" cx="143.1252" cy="-720" rx="44.0622" ry="18"/>
<text text-anchor="middle" x="143.1252" y="-715.8" font-family="Times,serif" font-size="14.00" fill="#000000">var_decl</text>
</g>
<!-- 22&#45;&gt;0 -->
<g id="edge21" class="edge">
<title>22&#45;&gt;0</title>
<path fill="none" stroke="#000000" d="M177.0647,-731.6725C192.1579,-736.6817 210.198,-742.422 226.6389,-747 239.0053,-750.4435 252.1993,-753.8163 265.0779,-756.9473"/>
<polygon fill="#000000" stroke="#000000" points="264.3052,-760.3612 274.846,-759.2916 265.9389,-753.5544 264.3052,-760.3612"/>
</g>
<!-- 22&#45;&gt;21 -->
<g id="edge22" class="edge">
<title>22&#45;&gt;21</title>
<path fill="none" stroke="#000000" d="M187.6927,-720C217.0772,-720 255.7607,-720 287.0087,-720"/>
<polygon fill="#000000" stroke="#000000" points="287.2967,-723.5001 297.2966,-720 287.2966,-716.5001 287.2967,-723.5001"/>
</g>
<!-- 23 -->
<g id="node24" class="node">
<title>23</title>
<ellipse fill="none" stroke="#000000" cx="627.7184" cy="-666" rx="74.12" ry="18"/>
<text text-anchor="middle" x="627.7184" y="-661.8" font-family="Times,serif" font-size="14.00" fill="#000000">Token(INT, &#39;1&#39;)</text>
</g>
<!-- 24 -->
<g id="node25" class="node">
<title>24</title>
<ellipse fill="#f1c8a3" stroke="#000000" cx="341.7154" cy="-639" rx="33.6402" ry="18"/>
<text text-anchor="middle" x="341.7154" y="-634.8" font-family="Times,serif" font-size="14.00" fill="#000000">initial</text>
</g>
<!-- 24&#45;&gt;23 -->
<g id="edge23" class="edge">
<title>24&#45;&gt;23</title>
<path fill="none" stroke="#000000" d="M374.803,-642.1236C416.9022,-646.098 491.0051,-653.0936 548.1544,-658.4888"/>
<polygon fill="#000000" stroke="#000000" points="547.9697,-661.9868 558.2544,-659.4423 548.6277,-655.0178 547.9697,-661.9868"/>
</g>
<!-- 25 -->
<g id="node26" class="node">
<title>25</title>
<ellipse fill="none" stroke="#000000" cx="872.9546" cy="-612" rx="74.12" ry="18"/>
<text text-anchor="middle" x="872.9546" y="-607.8" font-family="Times,serif" font-size="14.00" fill="#000000">Token(INT, &#39;2&#39;)</text>
</g>
<!-- 26 -->
<g id="node27" class="node">
<title>26</title>
<ellipse fill="#d7fdc3" stroke="#000000" cx="627.7184" cy="-612" rx="63.6832" ry="18"/>
<text text-anchor="middle" x="627.7184" y="-607.8" font-family="Times,serif" font-size="14.00" fill="#000000">medial_range</text>
</g>
<!-- 26&#45;&gt;25 -->
<g id="edge24" class="edge">
<title>26&#45;&gt;25</title>
<path fill="none" stroke="#000000" d="M691.5111,-612C721.0929,-612 756.6609,-612 788.4382,-612"/>
<polygon fill="#000000" stroke="#000000" points="788.61,-615.5001 798.6099,-612 788.6099,-608.5001 788.61,-615.5001"/>
</g>
<!-- 27 -->
<g id="node28" class="node">
<title>27</title>
<ellipse fill="none" stroke="#000000" cx="1117.1198" cy="-578" rx="133.7111" ry="18"/>
<text text-anchor="middle" x="1117.1198" y="-573.8" font-family="Times,serif" font-size="14.00" fill="#000000">Token(PREVIOUS_BIND, &#39;0&#39;)</text>
</g>
<!-- 28 -->
<g id="node29" class="node">
<title>28</title>
<ellipse fill="none" stroke="#000000" cx="1586.1297" cy="-659" rx="74.12" ry="18"/>
<text text-anchor="middle" x="1586.1297" y="-654.8" font-family="Times,serif" font-size="14.00" fill="#000000">Token(INT, &#39;1&#39;)</text>
</g>
<!-- 29 -->
<g id="node30" class="node">
<title>29</title>
<ellipse fill="none" stroke="#000000" cx="1586.1297" cy="-605" rx="74.12" ry="18"/>
<text text-anchor="middle" x="1586.1297" y="-600.8" font-family="Times,serif" font-size="14.00" fill="#000000">Token(INT, &#39;2&#39;)</text>
</g>
<!-- 30 -->
<g id="node31" class="node">
<title>30</title>
<ellipse fill="none" stroke="#000000" cx="1586.1297" cy="-551" rx="74.12" ry="18"/>
<text text-anchor="middle" x="1586.1297" y="-546.8" font-family="Times,serif" font-size="14.00" fill="#000000">Token(INT, &#39;3&#39;)</text>
</g>
<!-- 31 -->
<g id="node32" class="node">
<title>31</title>
<ellipse fill="#92a2f9" stroke="#000000" cx="1361.2851" cy="-578" rx="72.3477" ry="18"/>
<text text-anchor="middle" x="1361.2851" y="-573.8" font-family="Times,serif" font-size="14.00" fill="#000000">map_var_literal</text>
</g>
<!-- 31&#45;&gt;28 -->
<g id="edge25" class="edge">
<title>31&#45;&gt;28</title>
<path fill="none" stroke="#000000" d="M1390.466,-594.5237C1412.2627,-606.3067 1443.0843,-621.8064 1471.5948,-632 1486.1916,-637.2189 1502.1978,-641.7161 1517.4954,-645.4609"/>
<polygon fill="#000000" stroke="#000000" points="1516.8863,-648.9134 1527.4238,-647.8131 1518.5001,-642.1019 1516.8863,-648.9134"/>
</g>
<!-- 31&#45;&gt;29 -->
<g id="edge26" class="edge">
<title>31&#45;&gt;29</title>
<path fill="none" stroke="#000000" d="M1426.3194,-585.8095C1452.1956,-588.9168 1482.1716,-592.5164 1509.123,-595.7528"/>
<polygon fill="#000000" stroke="#000000" points="1508.9435,-599.2563 1519.2895,-596.9736 1509.7782,-592.3063 1508.9435,-599.2563"/>
</g>
<!-- 31&#45;&gt;30 -->
<g id="edge27" class="edge">
<title>31&#45;&gt;30</title>
<path fill="none" stroke="#000000" d="M1426.3194,-570.1905C1452.1956,-567.0832 1482.1716,-563.4836 1509.123,-560.2472"/>
<polygon fill="#000000" stroke="#000000" points="1509.7782,-563.6937 1519.2895,-559.0264 1508.9435,-556.7437 1509.7782,-563.6937"/>
</g>
<!-- 32 -->
<g id="node33" class="node">
<title>32</title>
<ellipse fill="none" stroke="#000000" cx="1586.1297" cy="-497" rx="74.12" ry="18"/>
<text text-anchor="middle" x="1586.1297" y="-492.8" font-family="Times,serif" font-size="14.00" fill="#000000">Token(INT, &#39;1&#39;)</text>
</g>
<!-- 33 -->
<g id="node34" class="node">
<title>33</title>
<ellipse fill="none" stroke="#000000" cx="1586.1297" cy="-443" rx="74.12" ry="18"/>
<text text-anchor="middle" x="1586.1297" y="-438.8" font-family="Times,serif" font-size="14.00" fill="#000000">Token(INT, &#39;2&#39;)</text>
</g>
<!-- 34 -->
<g id="node35" class="node">
<title>34</title>
<ellipse fill="#92a2f9" stroke="#000000" cx="1361.2851" cy="-497" rx="72.3477" ry="18"/>
<text text-anchor="middle" x="1361.2851" y="-492.8" font-family="Times,serif" font-size="14.00" fill="#000000">map_var_literal</text>
</g>
<!-- 34&#45;&gt;32 -->
<g id="edge28" class="edge">
<title>34&#45;&gt;32</title>
<path fill="none" stroke="#000000" d="M1433.665,-497C1455.2625,-497 1479.1279,-497 1501.4391,-497"/>
<polygon fill="#000000" stroke="#000000" points="1501.5671,-500.5001 1511.5671,-497 1501.5671,-493.5001 1501.5671,-500.5001"/>
</g>
<!-- 34&#45;&gt;33 -->
<g id="edge29" class="edge">
<title>34&#45;&gt;33</title>
<path fill="none" stroke="#000000" d="M1412.615,-484.3398C1431.1882,-479.7844 1452.3282,-474.6287 1471.5948,-470 1488.045,-466.0479 1505.8377,-461.8274 1522.3829,-457.9256"/>
<polygon fill="#000000" stroke="#000000" points="1523.569,-461.242 1532.5002,-455.5426 1521.9642,-454.4285 1523.569,-461.242"/>
</g>
<!-- 35 -->
<g id="node36" class="node">
<title>35</title>
<ellipse fill="#f6879c" stroke="#000000" cx="1117.1198" cy="-524" rx="65.9949" ry="18"/>
<text text-anchor="middle" x="1117.1198" y="-519.8" font-family="Times,serif" font-size="14.00" fill="#000000">map_var_subt</text>
</g>
<!-- 35&#45;&gt;31 -->
<g id="edge30" class="edge">
<title>35&#45;&gt;31</title>
<path fill="none" stroke="#000000" d="M1170.9602,-534.337C1195.4273,-539.1689 1224.7139,-545.14 1250.9753,-551 1267.15,-554.6092 1284.5952,-558.7591 1300.7329,-562.7055"/>
<polygon fill="#000000" stroke="#000000" points="1300.0423,-566.1399 1310.5889,-565.1298 1301.7143,-559.3425 1300.0423,-566.1399"/>
</g>
<!-- 35&#45;&gt;34 -->
<g id="edge31" class="edge">
<title>35&#45;&gt;34</title>
<path fill="none" stroke="#000000" d="M1178.1032,-517.2564C1210.5002,-513.6739 1250.6316,-509.2362 1285.0666,-505.4283"/>
<polygon fill="#000000" stroke="#000000" points="1285.53,-508.8985 1295.0847,-504.3205 1284.7606,-501.9409 1285.53,-508.8985"/>
</g>
<!-- 36 -->
<g id="node37" class="node">
<title>36</title>
<ellipse fill="#e7b2b4" stroke="#000000" cx="872.9546" cy="-558" rx="44.6665" ry="18"/>
<text text-anchor="middle" x="872.9546" y="-553.8" font-family="Times,serif" font-size="14.00" fill="#000000">mapping</text>
</g>
<!-- 36&#45;&gt;27 -->
<g id="edge32" class="edge">
<title>36&#45;&gt;27</title>
<path fill="none" stroke="#000000" d="M916.8884,-561.5987C938.3488,-563.3566 965.3673,-565.5697 992.5502,-567.7963"/>
<polygon fill="#000000" stroke="#000000" points="992.31,-571.2882 1002.5624,-568.6164 992.8816,-564.3116 992.31,-571.2882"/>
</g>
<!-- 36&#45;&gt;35 -->
<g id="edge33" class="edge">
<title>36&#45;&gt;35</title>
<path fill="none" stroke="#000000" d="M915.4849,-552.0777C952.0406,-546.9873 1005.4515,-539.5498 1048.1196,-533.6083"/>
<polygon fill="#000000" stroke="#000000" points="1048.7385,-537.056 1058.1602,-532.2101 1047.773,-530.1229 1048.7385,-537.056"/>
</g>
<!-- 37 -->
<g id="node38" class="node">
<title>37</title>
<ellipse fill="#d7fdc3" stroke="#000000" cx="627.7184" cy="-558" rx="63.6832" ry="18"/>
<text text-anchor="middle" x="627.7184" y="-553.8" font-family="Times,serif" font-size="14.00" fill="#000000">medial_range</text>
</g>
<!-- 37&#45;&gt;36 -->
<g id="edge34" class="edge">
<title>37&#45;&gt;36</title>
<path fill="none" stroke="#000000" d="M691.5111,-558C730.6874,-558 780.3628,-558 817.8281,-558"/>
<polygon fill="#000000" stroke="#000000" points="818.0526,-561.5001 828.0525,-558 818.0525,-554.5001 818.0526,-561.5001"/>
</g>
<!-- 38 -->
<g id="node39" class="node">
<title>38</title>
<ellipse fill="#e39ff6" stroke="#000000" cx="341.7154" cy="-558" rx="37.1424" ry="18"/>
<text text-anchor="middle" x="341.7154" y="-553.8" font-family="Times,serif" font-size="14.00" fill="#000000">napkin</text>
</g>
<!-- 38&#45;&gt;26 -->
<g id="edge35" class="edge">
<title>38&#45;&gt;26</title>
<path fill="none" stroke="#000000" d="M376.4991,-564.5675C423.1238,-573.3706 506.7103,-589.1526 564.5925,-600.0812"/>
<polygon fill="#000000" stroke="#000000" points="564.2511,-603.5786 574.7269,-601.9947 565.5499,-596.7001 564.2511,-603.5786"/>
</g>
<!-- 38&#45;&gt;37 -->
<g id="edge36" class="edge">
<title>38&#45;&gt;37</title>
<path fill="none" stroke="#000000" d="M379.1053,-558C423.2937,-558 497.8802,-558 553.855,-558"/>
<polygon fill="#000000" stroke="#000000" points="554.0786,-561.5001 564.0786,-558 554.0786,-554.5001 554.0786,-561.5001"/>
</g>
<!-- 39 -->
<g id="node40" class="node">
<title>39</title>
<ellipse fill="none" stroke="#000000" cx="627.7184" cy="-504" rx="74.12" ry="18"/>
<text text-anchor="middle" x="627.7184" y="-499.8" font-family="Times,serif" font-size="14.00" fill="#000000">Token(INT, &#39;3&#39;)</text>
</g>
<!-- 40 -->
<g id="node41" class="node">
<title>40</title>
<ellipse fill="#c2c1c2" stroke="#000000" cx="341.7154" cy="-504" rx="28.9696" ry="18"/>
<text text-anchor="middle" x="341.7154" y="-499.8" font-family="Times,serif" font-size="14.00" fill="#000000">final</text>
</g>
<!-- 40&#45;&gt;39 -->
<g id="edge37" class="edge">
<title>40&#45;&gt;39</title>
<path fill="none" stroke="#000000" d="M370.7128,-504C410.7694,-504 484.692,-504 543.0093,-504"/>
<polygon fill="#000000" stroke="#000000" points="543.3342,-507.5001 553.3342,-504 543.3342,-500.5001 543.3342,-507.5001"/>
</g>
<!-- 41 -->
<g id="node42" class="node">
<title>41</title>
<ellipse fill="none" stroke="#000000" cx="341.7154" cy="-450" rx="97.9888" ry="18"/>
<text text-anchor="middle" x="341.7154" y="-445.8" font-family="Times,serif" font-size="14.00" fill="#000000">Token(ARROW, &#39;&#45;&gt;&#39;)</text>
</g>
<!-- 42 -->
<g id="node43" class="node">
<title>42</title>
<ellipse fill="none" stroke="#000000" cx="627.7184" cy="-450" rx="125.0818" ry="18"/>
<text text-anchor="middle" x="627.7184" y="-445.8" font-family="Times,serif" font-size="14.00" fill="#000000">Token(COMPASS_DIR, &#39;S&#39;)</text>
</g>
<!-- 43 -->
<g id="node44" class="node">
<title>43</title>
<ellipse fill="none" stroke="#000000" cx="627.7184" cy="-396" rx="74.12" ry="18"/>
<text text-anchor="middle" x="627.7184" y="-391.8" font-family="Times,serif" font-size="14.00" fill="#000000">Token(INT, &#39;1&#39;)</text>
</g>
<!-- 44 -->
<g id="node45" class="node">
<title>44</title>
<ellipse fill="#89d1e6" stroke="#000000" cx="341.7154" cy="-396" rx="49.2183" ry="18"/>
<text text-anchor="middle" x="341.7154" y="-391.8" font-family="Times,serif" font-size="14.00" fill="#000000">ptcd_bare</text>
</g>
<!-- 44&#45;&gt;42 -->
<g id="edge38" class="edge">
<title>44&#45;&gt;42</title>
<path fill="none" stroke="#000000" d="M385.4645,-404.2602C426.834,-412.0712 490.0715,-424.011 541.5635,-433.7332"/>
<polygon fill="#000000" stroke="#000000" points="541.2196,-437.23 551.6954,-435.6461 542.5184,-430.3515 541.2196,-437.23"/>
</g>
<!-- 44&#45;&gt;43 -->
<g id="edge39" class="edge">
<title>44&#45;&gt;43</title>
<path fill="none" stroke="#000000" d="M390.8811,-396C432.6434,-396 493.5224,-396 543.0991,-396"/>
<polygon fill="#000000" stroke="#000000" points="543.1748,-399.5001 553.1747,-396 543.1747,-392.5001 543.1748,-399.5001"/>
</g>
<!-- 45 -->
<g id="node46" class="node">
<title>45</title>
<ellipse fill="none" stroke="#000000" cx="627.7184" cy="-342" rx="126.7876" ry="18"/>
<text text-anchor="middle" x="627.7184" y="-337.8" font-family="Times,serif" font-size="14.00" fill="#000000">Token(COMPASS_DIR, &#39;N&#39;)</text>
</g>
<!-- 46 -->
<g id="node47" class="node">
<title>46</title>
<ellipse fill="none" stroke="#000000" cx="872.9546" cy="-315" rx="74.12" ry="18"/>
<text text-anchor="middle" x="872.9546" y="-310.8" font-family="Times,serif" font-size="14.00" fill="#000000">Token(INT, &#39;1&#39;)</text>
</g>
<!-- 47 -->
<g id="node48" class="node">
<title>47</title>
<ellipse fill="none" stroke="#000000" cx="872.9546" cy="-261" rx="74.12" ry="18"/>
<text text-anchor="middle" x="872.9546" y="-256.8" font-family="Times,serif" font-size="14.00" fill="#000000">Token(INT, &#39;2&#39;)</text>
</g>
<!-- 48 -->
<g id="node49" class="node">
<title>48</title>
<ellipse fill="#a0d497" stroke="#000000" cx="627.7184" cy="-288" rx="72.3477" ry="18"/>
<text text-anchor="middle" x="627.7184" y="-283.8" font-family="Times,serif" font-size="14.00" fill="#000000">ptcd_var_literal</text>
</g>
<!-- 48&#45;&gt;46 -->
<g id="edge40" class="edge">
<title>48&#45;&gt;46</title>
<path fill="none" stroke="#000000" d="M693.7598,-295.271C725.0013,-298.7106 762.5188,-302.8412 795.1338,-306.4321"/>
<polygon fill="#000000" stroke="#000000" points="794.7629,-309.9123 805.0859,-307.5278 795.529,-302.9544 794.7629,-309.9123"/>
</g>
<!-- 48&#45;&gt;47 -->
<g id="edge41" class="edge">
<title>48&#45;&gt;47</title>
<path fill="none" stroke="#000000" d="M693.7598,-280.729C725.0013,-277.2894 762.5188,-273.1588 795.1338,-269.5679"/>
<polygon fill="#000000" stroke="#000000" points="795.529,-273.0456 805.0859,-268.4722 794.7629,-266.0877 795.529,-273.0456"/>
</g>
<!-- 49 -->
<g id="node50" class="node">
<title>49</title>
<ellipse fill="#96b2b2" stroke="#000000" cx="341.7154" cy="-342" rx="67.7779" ry="18"/>
<text text-anchor="middle" x="341.7154" y="-337.8" font-family="Times,serif" font-size="14.00" fill="#000000">ptcd_map_self</text>
</g>
<!-- 49&#45;&gt;45 -->
<g id="edge42" class="edge">
<title>49&#45;&gt;45</title>
<path fill="none" stroke="#000000" d="M409.8569,-342C434.1368,-342 462.4265,-342 490.424,-342"/>
<polygon fill="#000000" stroke="#000000" points="490.7177,-345.5001 500.7176,-342 490.7176,-338.5001 490.7177,-345.5001"/>
</g>
<!-- 49&#45;&gt;48 -->
<g id="edge43" class="edge">
<title>49&#45;&gt;48</title>
<path fill="none" stroke="#000000" d="M397.1988,-331.5242C443.7028,-322.7438 510.2706,-310.1752 559.9268,-300.7997"/>
<polygon fill="#000000" stroke="#000000" points="560.7599,-304.2043 569.9369,-298.9097 559.4612,-297.3258 560.7599,-304.2043"/>
</g>
<!-- 50 -->
<g id="node51" class="node">
<title>50</title>
<ellipse fill="none" stroke="#000000" cx="627.7184" cy="-234" rx="132.5867" ry="18"/>
<text text-anchor="middle" x="627.7184" y="-229.8" font-family="Times,serif" font-size="14.00" fill="#000000">Token(COMPASS_DIR, &#39;NE&#39;)</text>
</g>
<!-- 51 -->
<g id="node52" class="node">
<title>51</title>
<ellipse fill="none" stroke="#000000" cx="627.7184" cy="-180" rx="134.8529" ry="18"/>
<text text-anchor="middle" x="627.7184" y="-175.8" font-family="Times,serif" font-size="14.00" fill="#000000">Token(PREVIOUS_BIND, &#39;E&#39;)</text>
</g>
<!-- 52 -->
<g id="node53" class="node">
<title>52</title>
<ellipse fill="none" stroke="#000000" cx="872.9546" cy="-180" rx="74.12" ry="18"/>
<text text-anchor="middle" x="872.9546" y="-175.8" font-family="Times,serif" font-size="14.00" fill="#000000">Token(INT, &#39;1&#39;)</text>
</g>
<!-- 53 -->
<g id="node54" class="node">
<title>53</title>
<ellipse fill="none" stroke="#000000" cx="872.9546" cy="-126" rx="74.12" ry="18"/>
<text text-anchor="middle" x="872.9546" y="-121.8" font-family="Times,serif" font-size="14.00" fill="#000000">Token(INT, &#39;2&#39;)</text>
</g>
<!-- 54 -->
<g id="node55" class="node">
<title>54</title>
<ellipse fill="none" stroke="#000000" cx="1117.1198" cy="-99" rx="74.12" ry="18"/>
<text text-anchor="middle" x="1117.1198" y="-94.8" font-family="Times,serif" font-size="14.00" fill="#000000">Token(INT, &#39;3&#39;)</text>
</g>
<!-- 55 -->
<g id="node56" class="node">
<title>55</title>
<ellipse fill="none" stroke="#000000" cx="1361.2851" cy="-72" rx="74.12" ry="18"/>
<text text-anchor="middle" x="1361.2851" y="-67.8" font-family="Times,serif" font-size="14.00" fill="#000000">Token(INT, &#39;4&#39;)</text>
</g>
<!-- 56 -->
<g id="node57" class="node">
<title>56</title>
<ellipse fill="none" stroke="#000000" cx="1361.2851" cy="-18" rx="74.12" ry="18"/>
<text text-anchor="middle" x="1361.2851" y="-13.8" font-family="Times,serif" font-size="14.00" fill="#000000">Token(INT, &#39;5&#39;)</text>
</g>
<!-- 57 -->
<g id="node58" class="node">
<title>57</title>
<ellipse fill="#fdc1ad" stroke="#000000" cx="1117.1198" cy="-45" rx="50.9367" ry="18"/>
<text text-anchor="middle" x="1117.1198" y="-40.8" font-family="Times,serif" font-size="14.00" fill="#000000">var_literal</text>
</g>
<!-- 57&#45;&gt;55 -->
<g id="edge44" class="edge">
<title>57&#45;&gt;55</title>
<path fill="none" stroke="#000000" d="M1165.651,-50.3666C1199.227,-54.0795 1244.6368,-59.1009 1283.2548,-63.3713"/>
<polygon fill="#000000" stroke="#000000" points="1283.1076,-66.8763 1293.4317,-64.4967 1283.877,-59.9187 1283.1076,-66.8763"/>
</g>
<!-- 57&#45;&gt;56 -->
<g id="edge45" class="edge">
<title>57&#45;&gt;56</title>
<path fill="none" stroke="#000000" d="M1165.651,-39.6334C1199.227,-35.9205 1244.6368,-30.8991 1283.2548,-26.6287"/>
<polygon fill="#000000" stroke="#000000" points="1283.877,-30.0813 1293.4317,-25.5033 1283.1076,-23.1237 1283.877,-30.0813"/>
</g>
<!-- 58 -->
<g id="node59" class="node">
<title>58</title>
<ellipse fill="#da9089" stroke="#000000" cx="872.9546" cy="-72" rx="50.4013" ry="18"/>
<text text-anchor="middle" x="872.9546" y="-67.8" font-family="Times,serif" font-size="14.00" fill="#000000">ptcd_mult</text>
</g>
<!-- 58&#45;&gt;54 -->
<g id="edge46" class="edge">
<title>58&#45;&gt;54</title>
<path fill="none" stroke="#000000" d="M921.1938,-77.3343C954.7469,-81.0447 1000.2203,-86.0731 1038.9119,-90.3517"/>
<polygon fill="#000000" stroke="#000000" points="1038.7846,-93.8589 1049.1087,-91.4793 1039.554,-86.9013 1038.7846,-93.8589"/>
</g>
<!-- 58&#45;&gt;57 -->
<g id="edge47" class="edge">
<title>58&#45;&gt;57</title>
<path fill="none" stroke="#000000" d="M921.1938,-66.6657C960.6103,-62.307 1016.4773,-56.1291 1058.475,-51.485"/>
<polygon fill="#000000" stroke="#000000" points="1059.0089,-54.9474 1068.5636,-50.3694 1058.2395,-47.9898 1059.0089,-54.9474"/>
</g>
<!-- 59 -->
<g id="node60" class="node">
<title>59</title>
<ellipse fill="#a0d497" stroke="#000000" cx="627.7184" cy="-126" rx="72.3477" ry="18"/>
<text text-anchor="middle" x="627.7184" y="-121.8" font-family="Times,serif" font-size="14.00" fill="#000000">ptcd_var_literal</text>
</g>
<!-- 59&#45;&gt;52 -->
<g id="edge48" class="edge">
<title>59&#45;&gt;52</title>
<path fill="none" stroke="#000000" d="M685.28,-136.9586C709.2515,-141.6676 737.3429,-147.3746 762.6448,-153 778.5832,-156.5436 795.7531,-160.62 811.6899,-164.5136"/>
<polygon fill="#000000" stroke="#000000" points="810.885,-167.9199 821.4314,-166.9079 812.5558,-161.1222 810.885,-167.9199"/>
</g>
<!-- 59&#45;&gt;53 -->
<g id="edge49" class="edge">
<title>59&#45;&gt;53</title>
<path fill="none" stroke="#000000" d="M699.971,-126C727.6493,-126 759.4717,-126 788.2148,-126"/>
<polygon fill="#000000" stroke="#000000" points="788.2413,-129.5001 798.2413,-126 788.2413,-122.5001 788.2413,-129.5001"/>
</g>
<!-- 59&#45;&gt;58 -->
<g id="edge50" class="edge">
<title>59&#45;&gt;58</title>
<path fill="none" stroke="#000000" d="M681.8401,-114.0826C723.0179,-105.0155 779.3698,-92.607 820.2052,-83.6152"/>
<polygon fill="#000000" stroke="#000000" points="820.9591,-87.0331 829.9725,-81.4645 819.4537,-80.1969 820.9591,-87.0331"/>
</g>
<!-- 60 -->
<g id="node61" class="node">
<title>60</title>
<ellipse fill="#a7a7ec" stroke="#000000" cx="341.7154" cy="-207" rx="73.5811" ry="18"/>
<text text-anchor="middle" x="341.7154" y="-202.8" font-family="Times,serif" font-size="14.00" fill="#000000">ptcd_map_other</text>
</g>
<!-- 60&#45;&gt;50 -->
<g id="edge51" class="edge">
<title>60&#45;&gt;50</title>
<path fill="none" stroke="#000000" d="M410.5842,-213.5015C439.9437,-216.2732 475.0656,-219.5889 508.4181,-222.7375"/>
<polygon fill="#000000" stroke="#000000" points="508.419,-226.2531 518.7037,-223.7085 509.077,-219.284 508.419,-226.2531"/>
</g>
<!-- 60&#45;&gt;51 -->
<g id="edge52" class="edge">
<title>60&#45;&gt;51</title>
<path fill="none" stroke="#000000" d="M410.5842,-200.4985C439.5692,-197.7622 474.1706,-194.4956 507.141,-191.3831"/>
<polygon fill="#000000" stroke="#000000" points="507.6861,-194.8473 517.3128,-190.4228 507.0281,-187.8782 507.6861,-194.8473"/>
</g>
<!-- 60&#45;&gt;59 -->
<g id="edge53" class="edge">
<title>60&#45;&gt;59</title>
<path fill="none" stroke="#000000" d="M380.0298,-191.5532C410.2742,-179.7889 453.7374,-163.8252 492.792,-153 513.565,-147.2421 536.4573,-142.1888 557.394,-138.0587"/>
<polygon fill="#000000" stroke="#000000" points="558.3429,-141.4402 567.4971,-136.1064 557.0147,-134.5674 558.3429,-141.4402"/>
</g>
<!-- 61 -->
<g id="node62" class="node">
<title>61</title>
<ellipse fill="#c3adfe" stroke="#000000" cx="143.1252" cy="-477" rx="47.5274" ry="18"/>
<text text-anchor="middle" x="143.1252" y="-472.8" font-family="Times,serif" font-size="14.00" fill="#000000">transition</text>
</g>
<!-- 61&#45;&gt;24 -->
<g id="edge54" class="edge">
<title>61&#45;&gt;24</title>
<path fill="none" stroke="#000000" d="M153.1962,-494.8034C167.1316,-518.1158 194.2735,-559.059 226.6389,-585 249.4927,-603.3174 279.5784,-617.1555 303.2557,-626.2357"/>
<polygon fill="#000000" stroke="#000000" points="302.0487,-629.521 312.6417,-629.7172 304.4831,-622.9579 302.0487,-629.521"/>
</g>
<!-- 61&#45;&gt;38 -->
<g id="edge55" class="edge">
<title>61&#45;&gt;38</title>
<path fill="none" stroke="#000000" d="M163.9561,-493.3751C180.1958,-505.3978 203.7603,-521.2672 226.6389,-531 248.5646,-540.3275 274.2743,-546.7482 295.8248,-550.9801"/>
<polygon fill="#000000" stroke="#000000" points="295.2466,-554.4325 305.7193,-552.8288 296.5323,-547.5516 295.2466,-554.4325"/>
</g>
<!-- 61&#45;&gt;40 -->
<g id="edge56" class="edge">
<title>61&#45;&gt;40</title>
<path fill="none" stroke="#000000" d="M188.1884,-483.1267C222.8847,-487.844 270.3246,-494.2938 303.249,-498.7702"/>
<polygon fill="#000000" stroke="#000000" points="303.0138,-502.2703 313.3942,-500.1495 303.9569,-495.3341 303.0138,-502.2703"/>
</g>
<!-- 61&#45;&gt;41 -->
<g id="edge57" class="edge">
<title>61&#45;&gt;41</title>
<path fill="none" stroke="#000000" d="M188.1884,-470.8733C207.3416,-468.2692 230.3782,-465.1372 252.7127,-462.1007"/>
<polygon fill="#000000" stroke="#000000" points="253.4713,-465.5298 262.9086,-460.7144 252.5283,-458.5936 253.4713,-465.5298"/>
</g>
<!-- 61&#45;&gt;44 -->
<g id="edge58" class="edge">
<title>61&#45;&gt;44</title>
<path fill="none" stroke="#000000" d="M163.9561,-460.6249C180.1958,-448.6022 203.7603,-432.7328 226.6389,-423 245.4529,-414.9963 267.0531,-409.1328 286.4209,-404.956"/>
<polygon fill="#000000" stroke="#000000" points="287.2275,-408.3635 296.3189,-402.9232 285.8192,-401.5066 287.2275,-408.3635"/>
</g>
<!-- 61&#45;&gt;49 -->
<g id="edge59" class="edge">
<title>61&#45;&gt;49</title>
<path fill="none" stroke="#000000" d="M151.995,-458.9761C164.938,-434.6339 191.3534,-391.6922 226.6389,-369 239.1901,-360.9283 253.8962,-355.2636 268.5201,-351.2898"/>
<polygon fill="#000000" stroke="#000000" points="269.7344,-354.5952 278.6038,-348.8001 268.0564,-347.7993 269.7344,-354.5952"/>
</g>
<!-- 61&#45;&gt;60 -->
<g id="edge60" class="edge">
<title>61&#45;&gt;60</title>
<path fill="none" stroke="#000000" d="M150.0865,-458.8321C162.5608,-427.592 190.8016,-362.4811 226.6389,-315 251.2561,-282.3844 286.2473,-251.116 311.17,-230.6949"/>
<polygon fill="#000000" stroke="#000000" points="313.6296,-233.2072 319.2066,-224.199 309.2292,-227.7632 313.6296,-233.2072"/>
</g>
<!-- 62 -->
<g id="node63" class="node">
<title>62</title>
<ellipse fill="#e0b899" stroke="#000000" cx="29.8057" cy="-585" rx="29.6127" ry="18"/>
<text text-anchor="middle" x="29.8057" y="-580.8" font-family="Times,serif" font-size="14.00" fill="#000000">table</text>
</g>
<!-- 62&#45;&gt;22 -->
<g id="edge61" class="edge">
<title>62&#45;&gt;22</title>
<path fill="none" stroke="#000000" d="M43.4747,-601.2842C62.9999,-624.545 99.0485,-667.4905 122.0176,-694.854"/>
<polygon fill="#000000" stroke="#000000" points="119.5832,-697.3978 128.6932,-702.8069 124.9447,-692.8973 119.5832,-697.3978"/>
</g>
<!-- 62&#45;&gt;61 -->
<g id="edge62" class="edge">
<title>62&#45;&gt;61</title>
<path fill="none" stroke="#000000" d="M46.0417,-569.5262C64.8737,-551.5782 96.1373,-521.7821 118.087,-500.8628"/>
<polygon fill="#000000" stroke="#000000" points="120.6025,-503.3004 125.4268,-493.8676 115.7731,-498.2331 120.6025,-503.3004"/>
</g>
</g>
</svg>
